<svg width="153" height="119" viewBox="0 0 153 119" fill="none" xmlns="http://www.w3.org/2000/svg">
<path id="Skills" opacity="0.5" d="M63.6699 37.8242C63.6699 61.2943 55.9225 82.8275 40.4277 102.424C30.6295 114.273 22.7682 119.4 16.8437 117.805C11.375 115.754 8.64062 112.678 8.64062 108.576C8.64062 104.702 10.4635 100.601 14.1094 96.2715C17.5273 91.9421 20.2617 88.4102 22.3125 85.6758C24.3633 82.9414 26.0723 79.9792 27.4394 76.7891C30.6296 70.4089 32.2246 62.6615 32.2246 53.5469C26.7559 55.1419 21.2871 54.4583 15.8184 51.4961C5.79232 45.7995 0.779296 38.5078 0.779297 29.6211C0.779298 20.9622 3.51367 13.8984 8.98242 8.42969C14.2233 3.1888 21.515 0.568359 30.8574 0.568359C40.1999 0.56836 48.0612 4.10026 54.4414 11.1641C60.5938 18.4557 63.6699 27.3425 63.6699 37.8242ZM152.537 37.8242C152.537 62.2057 144.904 83.7389 129.637 102.424C118.016 116.324 108.331 120.539 100.584 115.07C98.9889 113.931 98.1914 112.108 98.1914 109.602C98.1914 105.044 99.9004 100.601 103.318 96.2715C106.508 91.9421 109.129 88.4102 111.18 85.6758C113.23 82.9414 114.939 79.9792 116.307 76.7891C119.497 70.4089 121.092 62.6615 121.092 53.5469C115.623 55.1419 110.268 54.4583 105.027 51.4961C95.2292 45.7995 90.3301 38.5078 90.3301 29.6211C90.3301 20.9622 92.9505 13.8984 98.1914 8.42969C103.432 3.18881 110.724 0.568366 120.066 0.568367C129.409 0.568368 137.156 4.10027 143.309 11.1641C149.461 18.4557 152.537 27.3425 152.537 37.8242Z" fill="white"/>
</svg>
