<svg width="79" height="79" viewBox="0 0 79 79" fill="none" xmlns="http://www.w3.org/2000/svg">
<g id="Group 43">
<g id="Group 42">
<circle id="Ellipse 149" cx="39.5" cy="39.5" r="37.5" stroke="#DE964E" stroke-width="4"/>
<circle id="Ellipse 150" cx="39.5" cy="39.5" r="29.5" fill="black"/>
<g id="Group">
<path id="Vector" d="M22.0009 32.3318C22.1164 32.0983 22.0915 31.8345 22.1564 31.5903C22.3358 30.9112 22.6459 30.3016 23.1416 29.8007C24.0327 28.9006 24.9238 27.9996 25.83 27.1146C26.5825 26.3802 27.4505 26.0407 28.4953 26.4417C28.8756 26.5879 29.1972 26.8241 29.4815 27.1075C30.8185 28.4425 32.1539 29.7785 33.4785 31.1251C34.0693 31.7258 34.4487 32.4254 34.3163 33.3104C34.2177 33.9699 33.841 34.4734 33.3879 34.9288C32.6363 35.6855 31.8784 36.4368 31.1251 37.1916C30.7368 37.5811 30.7297 37.6845 30.9536 38.1889C31.8118 40.1175 33.1267 41.7217 34.5366 43.2546C35.9412 44.7822 37.4951 46.1386 39.2426 47.2624C39.8405 47.6474 40.4838 47.9496 41.1146 48.2749C41.4068 48.4255 41.6201 48.307 41.8235 48.1011C42.6053 47.3115 43.3889 46.5236 44.1734 45.7358C44.4888 45.4194 44.8282 45.1306 45.2466 44.9622C46.0684 44.6316 46.8325 44.7733 47.5352 45.2857C47.7138 45.4158 47.8791 45.5673 48.0363 45.7242C49.3103 46.996 50.5816 48.2713 51.853 49.5449C52.1684 49.8612 52.4562 50.2008 52.6268 50.6197C52.9786 51.4842 52.8418 52.3076 52.2483 52.9921C51.2879 54.0999 50.2254 55.115 49.1717 56.1337C48.5916 56.6942 47.8506 56.9767 47.0564 57.1078C46.9595 57.1238 46.8645 57.1541 46.7694 57.1782C46.3474 57.1782 45.9263 57.1782 45.5043 57.1782C45.4305 57.1586 45.3586 57.1274 45.2839 57.1211C44.3076 57.0391 43.3561 56.8306 42.4277 56.5222C39.7002 55.6141 37.2135 54.2291 34.8796 52.5723C30.6497 49.5707 27.2622 45.7893 24.699 41.2725C23.7315 39.5676 22.9595 37.7736 22.4211 35.8833C22.2265 35.1998 22.1262 34.4984 22 33.8005C22.0009 33.3113 22.0009 32.822 22.0009 32.3318Z" fill="white"/>
<path id="Vector_2" d="M39.2311 25.5328C39.3537 24.6727 39.4665 23.8911 39.5749 23.1095C39.5935 22.9723 39.6735 22.9972 39.7668 23.0115C41.8626 23.3368 43.8642 23.9606 45.7512 24.9347C48.4272 26.3161 50.6696 28.2234 52.4758 30.6359C54.2117 32.954 55.3729 35.5385 55.9557 38.3815C56.0908 39.0419 56.089 39.0383 55.4156 39.1462C54.8683 39.2335 54.3201 39.3164 53.7782 39.4278C53.5428 39.4759 53.4557 39.4438 53.4086 39.1854C53.2105 38.1017 52.9058 37.0456 52.49 36.0242C51.3999 33.3443 49.735 31.0895 47.5023 29.2581C45.4963 27.612 43.2272 26.498 40.7032 25.908C40.283 25.8099 39.8565 25.736 39.4318 25.6611C39.3039 25.6379 39.216 25.6067 39.2311 25.5328Z" fill="white"/>
<path id="Vector_3" d="M39.4123 29.8463C41.0017 30.0949 42.4641 30.6225 43.7985 31.4737C46.3838 33.1242 48.1047 35.4298 48.9363 38.394C49.0171 38.6819 49.0607 38.9813 49.1424 39.2692C49.1975 39.4608 49.1024 39.5009 48.9532 39.5258C48.2433 39.6444 47.5317 39.754 46.8245 39.8904C46.5971 39.934 46.5437 39.8574 46.5011 39.6569C45.905 36.8718 44.3449 34.8033 41.8653 33.4308C41.055 32.9825 40.1879 32.6759 39.272 32.5342C38.9743 32.4888 38.8588 32.4005 38.9157 32.0761C39.0312 31.4202 39.104 30.7562 39.2044 30.0976C39.2222 29.9755 39.1902 29.7688 39.4123 29.8463Z" fill="white"/>
</g>
</g>
</g>
</svg>
