<svg xmlns="http://www.w3.org/2000/svg" width="246.001" height="70" viewBox="0 0 246.001 70">
  <g id="Group_2837" data-name="Group 2837" transform="translate(-7714 -1392)">
    <g id="Group_2836" data-name="Group 2836" transform="translate(0 127)">
      <rect id="Rectangle_18288" data-name="Rectangle 18288" width="246" height="70" transform="translate(7714.001 1265)" fill="#fff" opacity="0"/>
      <g id="Group_2835" data-name="Group 2835" transform="translate(5.511 -85.169)">
        <path id="Path_33242" data-name="Path 33242" d="M249.287,71.393c-4.373,0-6.624-1.7-6.624-4.261V65.209h.1a8.88,8.88,0,0,0,6.062,2.335c3.263,0,4.308-1.1,4.308-2.839,0-1.493-.57-2.148-5.165-3.126-3.676-.789-5.768-2.619-5.768-5.555,0-3.6,3.044-7.006,8.144-7.006s6.53,2.145,6.53,3.945v1.991h-.127a7.42,7.42,0,0,0-5.64-2.115c-3.361,0-4.6,1.1-4.6,2.777,0,1.294,1.014,2.084,5.07,2.937,3.961.819,5.9,2.87,5.9,5.774C257.464,68.582,254.548,71.393,249.287,71.393Z" transform="translate(7546.582 1316.229)" fill="#249cea"/>
        <path id="Path_33243" data-name="Path 33243" d="M313.179,74.564c0,3.507,1.486,5.4,4.08,5.4,2.355,0,3.673-1.423,3.673-4.96,0-3.631-1.349-5.338-3.894-5.338-1.914,0-3.859,1.8-3.859,4.907Zm11.93-.063V88.718l-1.381-.032a2.512,2.512,0,0,1-2.8-2.812v-4.36a4.59,4.59,0,0,1-4.112,2.212c-4.238,0-7.849-3.38-7.849-8.4,0-5.373,3.453-9.413,8.6-9.413,4.868,0,7.539,3.253,7.539,8.591Z" transform="translate(7497.667 1303.853)" fill="#249cea"/>
        <path id="Path_33244" data-name="Path 33244" d="M392.857,84.948c-4.169,0-7.459-2.778-7.459-7.736V67.52h.784c2.413,0,3.48,1.041,3.48,3.03V76.8c0,3.127,1.5,4.389,3.415,4.389,1.73,0,2.944-1.2,2.944-4.105V67.52h.742c2.444,0,3.48,1.041,3.48,3.03v6.376C400.254,82.231,397.778,84.948,392.857,84.948Z" transform="translate(7441.679 1302.674)" fill="#249cea"/>
        <path id="Path_33245" data-name="Path 33245" d="M463.649,76.658h-1.5c-3.187,0-4.094.747-4.094,2.145,0,1.325,1.063,2.115,2.909,2.115s2.686-.883,2.686-2.621Zm-2.282,7.7h-.833c-4,0-6.751-2.272-6.751-5.4,0-3.029,2.186-5.334,8.381-5.334h1.479v-.221c0-2.4-1.125-3.126-3.625-3.126-3.031,0-4.718,1.167-5.344,1.956h-.158V70.881c0-1.894,1.688-4.166,6.127-4.166,3.754,0,7.126,1.766,7.126,7.638v3.915c-.027,3.6-2.652,6.09-6.4,6.09Z" transform="translate(7391.584 1303.264)" fill="#249cea"/>
        <path id="Path_33246" data-name="Path 33246" d="M528.473,71.007a5.982,5.982,0,0,0-2.429-.5c-1.869,0-2.9,1.044-2.9,3.632v9.785H522c-1.869,0-3.051-.949-3.051-2.717V73.374c0-3.408,1.775-6.659,6.2-6.659,2.586,0,3.486,1.494,3.486,2.776v1.516Z" transform="translate(7343.849 1303.264)" fill="#249cea"/>
        <path id="Path_33247" data-name="Path 33247" d="M569.492,69.454a3.632,3.632,0,0,0-3.545,3.64l-.032.572H567.8c3.986,0,4.894-.442,4.894-1.648C572.691,70.308,571.436,69.454,569.492,69.454Zm-.784,7.218h-2.761c.314,2.155,2.259,3.516,4.738,3.516a7.591,7.591,0,0,0,5.177-1.619h.158V79.9c0,2.185-1.484,3.863-6.119,3.863a8.385,8.385,0,0,1-8.317-8.582c0-5.7,3.452-9.273,8.284-9.273a6.566,6.566,0,0,1,6.777,6.617c0,3.137-2.353,4.148-7.938,4.148Z" transform="translate(7312.614 1303.854)" fill="#249cea"/>
        <g id="Group_2833" data-name="Group 2833" transform="translate(7899.587 1364.169)">
          <path id="Path_33248" data-name="Path 33248" d="M664.216,61.953h-3.424v4.479c0,.765.817,1.368,1.884,1.368h1.758c2.325,0,3.467-1.08,3.467-2.733-.013-2.355-1.174-3.119-3.685-3.119Zm0-8.518h-1.61a13.431,13.431,0,0,0-1.855.221v4.935h3.3c1.914,0,3.486-.751,3.486-2.636S665.826,53.435,664.216,53.435Zm.619,18.331h-2.323c-4.021,0-6-1.779-6-5.178V50.8a21.919,21.919,0,0,1,5.7-.985h2.6c4.116,0,7.035,2.192,7.035,5.749a4.474,4.474,0,0,1-3.422,4.607,5.4,5.4,0,0,1,3.8,4.76c0,4.382-3.453,6.83-7.386,6.83Z" transform="translate(-656.515 -48.529)" fill="#18bf02"/>
          <path id="Path_33249" data-name="Path 33249" d="M733.557,68.231c-3.272,0-5.066-1.852-5.066-5.275V51.494h1.2c1.889,0,3.018,1.005,3.018,3.14v7.924c0,1.693.724,2.229,2.58,2.229h.789V65.7C736.075,67.509,735.348,68.231,733.557,68.231Zm-2.99-18.307a2.5,2.5,0,1,1,1.746-.735A2.514,2.514,0,0,1,730.568,49.923Z" transform="translate(-708.964 -44.993)" fill="#18bf02"/>
          <path id="Path_33250" data-name="Path 33250" d="M768.774,54.206a2.961,2.961,0,0,1,1.992-1.167h.976v3.839h5.9v1.743a2.249,2.249,0,0,1-2.524,2.022h-3.378v6.663c0,2.208.978,3.062,2.684,3.062a6.026,6.026,0,0,0,3.062-.6h.157v1.516c0,1.743-1.262,2.841-3.734,2.841-4.294,0-6.378-2.335-6.378-6.314V57.573a4.227,4.227,0,0,1,1.243-3.367Z" transform="translate(-737.838 -50.887)" fill="#18bf02"/>
          <path id="Path_33251" data-name="Path 33251" d="M817.781,83.769c-3.14,0-5.489-1.615-5.489-3.355V78.482h.16a8.49,8.49,0,0,0,5.139,1.61c2.094,0,3.109-.6,3.109-1.867,0-.981-.6-1.457-3.556-1.866-3.615-.5-5.362-1.932-5.362-4.528,0-3.2,2.887-5.919,7.255-5.919,3.871,0,5.457,2,5.457,3.64v1.614h-.158a7.5,7.5,0,0,0-4.886-1.583c-2.6,0-3.425.791-3.425,1.9,0,.854.5,1.2,3.425,1.678,3.553.569,5.456,2.119,5.456,4.843C824.918,81.617,822.381,83.769,817.781,83.769Z" transform="translate(-770.257 -60.316)" fill="#18bf02"/>
        </g>
        <path id="Union_1" data-name="Union 1" d="M105.463-33.767v-6.376H106.6v.4a1.947,1.947,0,0,1,1.285-.482c.038,0,.076,0,.114,0a2.562,2.562,0,0,1,2.535,2.575,2.56,2.56,0,0,1-2.525,2.583q-.072.005-.143.005a1.92,1.92,0,0,1-1.266-.473v1.764Zm1.15-4.005-.009.131a1.441,1.441,0,0,0,.379,1.08,1.381,1.381,0,0,0,1.009.443h.026a1.41,1.41,0,0,0,1.382-1.415,1.409,1.409,0,0,0-1.351-1.444H108A1.413,1.413,0,0,0,106.613-37.772ZM11.5-35.092a2.586,2.586,0,0,1-2.071-2.535,2.558,2.558,0,0,1,2.427-2.57l.111,0a2.5,2.5,0,0,1,1.709.675,2.583,2.583,0,0,1,.756,1.3l.021-.031.05.382a1.453,1.453,0,0,1-.017.475l-.025.12H10.591A1.4,1.4,0,0,0,11.962-36.1h.023a1.336,1.336,0,0,0,1.235-.7l.042-.079h1.159l-.081.205a2.536,2.536,0,0,1-2.365,1.63A2.514,2.514,0,0,1,11.5-35.092Zm-.851-3.193h2.625a1.252,1.252,0,0,0-1.189-.878c-.031,0-.063,0-.094,0h-.023c-.031,0-.063,0-.095,0A1.311,1.311,0,0,0,10.645-38.285ZM30.989-35.1a2.585,2.585,0,0,1-2.071-2.534,2.558,2.558,0,0,1,2.427-2.57l.111,0a2.505,2.505,0,0,1,1.709.676,2.578,2.578,0,0,1,.755,1.3l.03-.044.04.407a1.433,1.433,0,0,1-.031.472l-.027.116H30.071A1.4,1.4,0,0,0,31.442-36.1h.022a1.333,1.333,0,0,0,1.235-.7l.043-.078h1.171l-.08.205a2.536,2.536,0,0,1-2.365,1.629A2.53,2.53,0,0,1,30.989-35.1Zm-.851-3.193h2.624a1.253,1.253,0,0,0-1.188-.878c-.031,0-.063,0-.094,0h-.023c-.031,0-.064,0-.1,0A1.31,1.31,0,0,0,30.138-38.289ZM50.065-35.1a2.584,2.584,0,0,1-2.071-2.535,2.554,2.554,0,0,1,2.426-2.577l.111,0a2.5,2.5,0,0,1,1.712.678A2.585,2.585,0,0,1,53-38.2l.022-.027.036.356a1.416,1.416,0,0,1-.03.469l-.027.116h-3.86a1.4,1.4,0,0,0,1.371,1.177h.022a1.333,1.333,0,0,0,1.236-.7l.042-.078h1.171l-.08.2a2.537,2.537,0,0,1-2.365,1.63A2.514,2.514,0,0,1,50.065-35.1Zm-.852-3.193h2.625a1.252,1.252,0,0,0-1.188-.877c-.031,0-.063,0-.094,0h-.022c-.032,0-.064,0-.1,0A1.313,1.313,0,0,0,49.213-38.292Zm108.032,3.187a2.585,2.585,0,0,1-2.071-2.534,2.555,2.555,0,0,1,2.426-2.578l.111,0a2.508,2.508,0,0,1,1.712.678,2.59,2.59,0,0,1,.732,1.217l.023-.047.06.5a1.426,1.426,0,0,1-.023.463l-.026.118h-3.862a1.4,1.4,0,0,0,1.371,1.178h.023a1.333,1.333,0,0,0,1.235-.7l.042-.078h1.173l-.081.205a2.536,2.536,0,0,1-2.365,1.63A2.515,2.515,0,0,1,157.245-35.105Zm-.851-3.192h2.624a1.253,1.253,0,0,0-1.188-.878c-.032,0-.064,0-.1,0h-.022c-.031,0-.064,0-.1,0A1.31,1.31,0,0,0,156.394-38.3Zm-22.7,3.192a2.585,2.585,0,0,1-2.071-2.534,2.555,2.555,0,0,1,2.426-2.578l.111,0a2.508,2.508,0,0,1,1.712.678,2.584,2.584,0,0,1,.776,1.41l.007-.005.033.269a1.421,1.421,0,0,1-.024.462l-.026.118h-3.863a1.4,1.4,0,0,0,1.371,1.178h.022a1.332,1.332,0,0,0,1.235-.7l.042-.078h1.173l-.081.205a2.536,2.536,0,0,1-2.365,1.63A2.515,2.515,0,0,1,133.693-35.105Zm-.851-3.192h2.624a1.251,1.251,0,0,0-1.187-.878c-.031,0-.064,0-.1,0h-.022l-.1,0A1.31,1.31,0,0,0,132.842-38.3ZM115.46-35.105a2.587,2.587,0,0,1-2.072-2.532,2.557,2.557,0,0,1,2.427-2.569l.111,0a2.5,2.5,0,0,1,1.709.675,2.579,2.579,0,0,1,.77,1.368l.019-.019.032.318a1.463,1.463,0,0,1-.028.464l-.026.117H114.54a1.4,1.4,0,0,0,1.372,1.178h.022a1.333,1.333,0,0,0,1.235-.7l.043-.079h1.172l-.081.205a2.536,2.536,0,0,1-2.363,1.627A2.517,2.517,0,0,1,115.46-35.105Zm-.851-3.19h2.624a1.253,1.253,0,0,0-1.189-.877c-.031,0-.063,0-.094,0h-.022c-.032,0-.064,0-.1,0A1.308,1.308,0,0,0,114.609-38.3ZM58.486-35.071H58.48a2.558,2.558,0,0,1-2.532-2.567,2.581,2.581,0,0,1,.734-1.823,2.494,2.494,0,0,1,1.786-.761l.11,0a2.43,2.43,0,0,1,2.372,1.993l.033.177H59.819l-.029-.112a1.323,1.323,0,0,0-1.311-1,1.5,1.5,0,0,0-1.435,1.526,1.507,1.507,0,0,0,1.444,1.52h.033a1.316,1.316,0,0,0,1.268-1l.03-.112h1.164l-.034.178a2.429,2.429,0,0,1-2.368,1.984Zm91.421,0H149.9a2.558,2.558,0,0,1-2.532-2.566,2.581,2.581,0,0,1,.734-1.822,2.5,2.5,0,0,1,1.786-.762l.111,0a2.43,2.43,0,0,1,2.372,1.993l.033.178h-1.159l-.029-.113a1.325,1.325,0,0,0-1.31-1,1.506,1.506,0,0,0-1.435,1.527,1.5,1.5,0,0,0,1.444,1.519h.032a1.317,1.317,0,0,0,1.268-1l.029-.113h1.16l-.034.178A2.428,2.428,0,0,1,150-35.073Zm-85.672-1.6v-2.492h-.691v-.978h.691v-.85l1.137-.235v1.081h1.016v.977H65.371v2.5c0,.459.182.544.539.544a3.379,3.379,0,0,0,.338-.021l.165-.016v1.018l-.138.011c-.145.011-.274.016-.4.016C65.173-35.116,64.235-35.277,64.235-36.673Zm-58.9,1.543V-37.8c0-.968-.287-1.332-1.057-1.346H4.275a1.165,1.165,0,0,0-.909.359,1.212,1.212,0,0,0-.328.939v2.719H1.911v-6.385H3.027l.013,1.732a1.719,1.719,0,0,1,1.127-.426c.049,0,.1,0,.15.006,1.391,0,2.157.852,2.157,2.393v2.679Zm-9.039,0v-5.307h-1.81v-1.134H-.738v1.134h-1.8v5.307Zm105.215,0-1.044-1.643-1.036,1.643h-1.1v-.247L99.838-37.7,98.3-39.946l0-.268h1.1l1.074,1.571,1.073-1.571h1.126v.222L101.1-37.7l1.532,2.345v.221Zm-79.477,0v-6.384l2.349-.013h0a2.152,2.152,0,0,1,2.085,2.179,2.152,2.152,0,0,1-2.085,2.18H23.22v2.038Zm1.17-3.194h1.162a.991.991,0,0,0,.944-1,.99.99,0,0,0-.944-1H23.207Zm13.841,3.19v-4.994h1.128v.335a1.794,1.794,0,0,1,1.186-.453,1.768,1.768,0,0,1,.563.092l.1.034v1.059l-.2-.061a1.267,1.267,0,0,0-.376-.058,1.27,1.27,0,0,0-.775.266,1.321,1.321,0,0,0-.506,1.078v2.7Zm6.4,0v-4H42.74v-1.039h.707c.051-.968.606-1.439,1.691-1.439.108,0,.224,0,.345.014l.139.011v1.018l-.165-.017c-.11-.011-.2-.016-.283-.016-.334,0-.543.075-.585.43h.931v1.039h-.939l0,4Zm48.254,0v-6.445h3.93v1.177H92.867V-39h2.706v1.186H92.867l.005,1.491h2.775v1.177Zm-10.114,0v-5.307h-1.81v-1.134h4.774v1.134h-1.8v5.307Zm45.827,0V-40.2h1.136v5.054Zm-5.9,0v-4.994h1.129v.335a1.789,1.789,0,0,1,1.186-.454,1.768,1.768,0,0,1,.563.092l.1.034v1.06l-.194-.061a1.243,1.243,0,0,0-.376-.058,1.275,1.275,0,0,0-.775.265,1.321,1.321,0,0,0-.506,1.079v2.7Zm21.673,0v-2.671c0-.967-.286-1.331-1.057-1.345h-.006a1.164,1.164,0,0,0-.908.359,1.2,1.2,0,0,0-.328.939v2.718h-1.141v-5H140.9v.346a1.708,1.708,0,0,1,1.12-.422c.051,0,.1,0,.155.007,1.385,0,2.148.852,2.148,2.392v2.679Zm-69.536,0v-1.117h1.11v-4.211h-1.11v-1.1h3.383v1.1h-1.11v4.211h1.11v1.117Zm53.658-6.047,0-.076.019-.016a.673.673,0,0,1,.658-.544h0a.674.674,0,0,1,.667.611v.025a.677.677,0,0,1-.67.637A.677.677,0,0,1,127.313-41.195Z" transform="translate(7794.141 1441.797)"/>
      </g>
      <g id="Group_2834" data-name="Group 2834" transform="translate(0 -97.012)">
        <path id="Path_33257" data-name="Path 33257" d="M-1543.562-753.112c-.061-.083-.023-.151,0-.216a21.8,21.8,0,0,0,.643-3.552q.168-1.6.215-3.206.024-.8.055-1.61a9.741,9.741,0,0,0-.1-1.566,26.089,26.089,0,0,0-3.131-9.313,30.016,30.016,0,0,0-2.395-3.752,4.67,4.67,0,0,0-.431-.5l-12.763-12.763a12.393,12.393,0,0,0-4.123-2.774,8.986,8.986,0,0,0-3.6-.67,9.464,9.464,0,0,0-3.608.815q-.15.066-.3.135a7.659,7.659,0,0,0-2.479,1.767,13.663,13.663,0,0,0-2.184,3,8.858,8.858,0,0,0-.965,3.159,8.9,8.9,0,0,0,.529,4.055,10.37,10.37,0,0,0,.893,1.84,7.155,7.155,0,0,0,1.008,1.291q5.964,6.023,11.917,12.057a3.183,3.183,0,0,1,.308.36,9.709,9.709,0,0,1,1.489,2.83,5.778,5.778,0,0,1-1.019,5.573,6.986,6.986,0,0,1-1.7,1.594,5.834,5.834,0,0,1-3.794.92,9.051,9.051,0,0,1-3.679-1.2,2.131,2.131,0,0,1-.46-.345q-6.279-6.3-12.533-12.627a20.258,20.258,0,0,1-5.271-9.445,21.685,21.685,0,0,1-.5-2.837,24.234,24.234,0,0,1-.115-3.756c.037-.9.133-1.8.251-2.689.093-.713.2-1.422.358-2.123a19.914,19.914,0,0,1,2.569-6.171,25.642,25.642,0,0,1,4.53-5.373,29.581,29.581,0,0,1,4.024-3.088,5.463,5.463,0,0,1,.575-.322,25.87,25.87,0,0,1,5.844-2.031,23.547,23.547,0,0,1,2.886-.43,22.2,22.2,0,0,1,3.357-.031,21.768,21.768,0,0,1,4.768.855,23.111,23.111,0,0,1,7.136,3.51,11.061,11.061,0,0,1,1.25,1.065c4.053,4.008,8.114,8.006,12.125,12.057.368.372.725.755,1.1,1.122a17.8,17.8,0,0,1,2.155,2.619,24.524,24.524,0,0,1,3.369,6.85,23.2,23.2,0,0,1,.861,4.254,27.145,27.145,0,0,1,.138,3.939,18.122,18.122,0,0,1-.778,4.411,23.768,23.768,0,0,1-3.776,7.491,26.33,26.33,0,0,1-4.139,4.459A4.684,4.684,0,0,1-1543.562-753.112Z" transform="translate(9317.374 2169.168)" fill="#18bf02" fill-rule="evenodd"/>
        <path id="Path_33258" data-name="Path 33258" d="M-1687.836-566.833a26.3,26.3,0,0,1-.2,3.241,26.605,26.605,0,0,1-.44,2.773,19.864,19.864,0,0,1-2.6,6.2,25.5,25.5,0,0,1-4.383,5.212,31.955,31.955,0,0,1-3.425,2.73,12,12,0,0,1-1.969,1.11,25.7,25.7,0,0,1-6.157,1.9,21.194,21.194,0,0,1-2.248.261c-.46.029-.92.051-1.387.053a21.945,21.945,0,0,1-6.233-.874,23.016,23.016,0,0,1-7.186-3.5,11.334,11.334,0,0,1-1.308-1.108c-4.009-3.964-8.022-7.927-11.989-11.934-.6-.606-1.185-1.224-1.783-1.833a13.656,13.656,0,0,1-1.281-1.593,24.92,24.92,0,0,1-3.427-6.5,22.349,22.349,0,0,1-1-4.107c-.109-.76-.178-1.522-.23-2.288-.053-.8-.045-1.61-.049-2.414a11.614,11.614,0,0,1,.16-1.671,20.976,20.976,0,0,1,1.108-4.378,24.361,24.361,0,0,1,3.054-5.717,27.372,27.372,0,0,1,3.449-3.962q.575-.541,1.18-1.035a1.275,1.275,0,0,1,.177-.126.05.05,0,0,1,.051,0,.05.05,0,0,1,.027.044.67.67,0,0,1-.023.179,19.65,19.65,0,0,0-.538,2.718c-.078.575-.124,1.161-.176,1.743-.106,1.177-.123,2.358-.17,3.538a13.747,13.747,0,0,0,.216,2.759,27.114,27.114,0,0,0,3.384,9.124,29.143,29.143,0,0,0,2,3.054,4.925,4.925,0,0,0,.46.523q3.513,3.515,7.022,7.032c1.918,1.922,3.827,3.855,5.756,5.767a12.457,12.457,0,0,0,3.866,2.645,9.036,9.036,0,0,0,4.2.746,9.663,9.663,0,0,0,3.443-.9,12.836,12.836,0,0,0,1.222-.656,4.32,4.32,0,0,0,.752-.575,14.032,14.032,0,0,0,2.483-3.049,9.276,9.276,0,0,0,1.159-3.056,8.6,8.6,0,0,0,.046-2.76,9.791,9.791,0,0,0-1.883-4.5,3.363,3.363,0,0,0-.312-.358q-4.091-4.15-8.184-8.3-1.955-1.976-3.909-3.948a3.657,3.657,0,0,1-.373-.448,10.186,10.186,0,0,1-1.379-2.6,6.289,6.289,0,0,1-.345-2.515,5.5,5.5,0,0,1,.368-1.595,7.094,7.094,0,0,1,3.486-3.679,6.029,6.029,0,0,1,1.687-.446,7.453,7.453,0,0,1,3.437.491c.285.1.563.23.84.354a4.736,4.736,0,0,1,1.426.995q4.353,4.4,8.729,8.787c1.192,1.2,2.37,2.415,3.564,3.621a19.972,19.972,0,0,1,4.9,8.278,20.575,20.575,0,0,1,.736,3.384,22.684,22.684,0,0,1,.2,3.167Z" transform="translate(9459.133 1975.369)" fill="#249cea" fill-rule="evenodd"/>
      </g>
    </g>
  </g>
</svg>
