<svg xmlns="http://www.w3.org/2000/svg" width="255.14" height="94.196" viewBox="0 0 255.14 94.196">
  <g id="deepak_logo2" transform="translate(-100 -60)">
    <rect id="Rectangle_1" data-name="Rectangle 1" width="255" height="80" transform="translate(100 60)" fill="white" opacity="0"/>
    <path id="Path_3" data-name="Path 3" d="M18.42-26.88c4.32,0,7.8,2.76,7.92,7.14H10.56C11.22-24.3,14.4-26.88,18.42-26.88ZM34.2-10.44H25.14a6.849,6.849,0,0,1-6.66,4.02c-4.2,0-7.56-2.76-7.98-7.68H34.8a19.634,19.634,0,0,0,.24-3.24c0-9.9-6.78-16.44-16.38-16.44-9.84,0-16.68,6.66-16.68,17.16C1.98-6.18,9,.54,18.66.54,26.88.54,32.4-4.32,34.2-10.44ZM55.44-26.88c4.32,0,7.8,2.76,7.92,7.14H47.58C48.24-24.3,51.42-26.88,55.44-26.88ZM71.22-10.44H62.16A6.849,6.849,0,0,1,55.5-6.42c-4.2,0-7.56-2.76-7.98-7.68h24.3a19.635,19.635,0,0,0,.24-3.24c0-9.9-6.78-16.44-16.38-16.44C45.84-33.78,39-27.12,39-16.62,39-6.18,46.02.54,55.68.54,63.9.54,69.42-4.32,71.22-10.44Zm15.36-18v-4.8h-8.4V29.84h8.4V-4.74A13.57,13.57,0,0,0,97.56.54c8.52,0,15.18-6.9,15.18-17.28s-6.66-17.04-15.18-17.04A13.279,13.279,0,0,0,86.58-28.44Zm17.58,11.7c0,6.3-4.26,9.9-8.82,9.9-4.5,0-8.76-3.48-8.76-9.78s4.26-9.78,8.76-9.78C99.9-26.4,104.16-23.04,104.16-16.74Zm12.54,0C116.7-6.36,123.42.54,131.82.54a13.11,13.11,0,0,0,11.04-5.4V0h8.46V-33.24h-8.46v4.74a13.145,13.145,0,0,0-10.98-5.28C123.42-33.78,116.7-27.12,116.7-16.74Zm26.16.12c0,6.3-4.2,9.78-8.82,9.78-4.5,0-8.76-3.6-8.76-9.9s4.26-9.66,8.76-9.66C138.66-26.4,142.86-22.92,142.86-16.62ZM159.54,0h8.4V-14.16L179.22,0h10.92L175.38-16.56l14.64-16.68H179.1l-11.16,14.1V-63.4h-8.4Z" transform="translate(165 124)" fill="#4831d4"/>
    <g id="Group_2" data-name="Group 2" transform="translate(-154 -103)">
      <path id="Subtraction_2" data-name="Subtraction 2" d="M-1816,183h-40V103h40v15.269a35.947,35.947,0,0,0-4.441-.269h-17.479v50h17.479a36.308,36.308,0,0,0,4.441-.267V183Zm-4.8-23.524h-7.092V126.453h7.092a22.352,22.352,0,0,1,4.8.492V159A22.968,22.968,0,0,1-1820.8,159.476Z" transform="translate(2110 60)" fill="#4831d4"/>
      <path id="Intersection_2" data-name="Intersection 2" d="M174,159c7.519-1.611,11.677-7.241,11.677-15.927S181.519,128.605,174,126.945v-8.676c13.432,1.677,21.92,11.074,21.92,24.8,0,13.664-8.488,23-21.92,24.662Z" transform="translate(120 60)" fill="#4831d4"/>
    </g>
    <path id="Path_4" data-name="Path 4" d="M-84.308-19.712a9.734,9.734,0,0,0-9.94,9.94,9.717,9.717,0,0,0,9.94,9.94,9.594,9.594,0,0,0,9.632-8.344v-2.492H-85.4V-8.12h7.308a5.892,5.892,0,0,1-6.216,5.4c-3.864,0-6.664-2.772-6.664-7.056s2.8-7.028,6.664-7.028A5.532,5.532,0,0,1-79.1-13.86h3.836A9.277,9.277,0,0,0-84.308-19.712Zm32.284,9.94a9.7,9.7,0,0,0-9.94-9.94,9.734,9.734,0,0,0-9.94,9.94A9.74,9.74,0,0,0-61.964.2,9.708,9.708,0,0,0-52.024-9.772Zm-16.6,0c0-4.4,2.8-7.14,6.664-7.14s6.664,2.744,6.664,7.14-2.8,7.2-6.664,7.2S-68.628-5.376-68.628-9.772ZM-43.4-7.056V0h3.192V-7.056l6.44-12.4H-37.3L-41.8-9.912l-4.508-9.548h-3.556ZM-17.416,0h3.36l-6.972-19.488h-3.7L-31.7,0h3.332l1.4-3.976h8.148Zm-2.3-6.58h-6.356l3.192-9.044Zm9.38-12.88V0H-.56V-2.576H-7.14V-19.46Z" transform="translate(355 154)" fill="#3d155f"/>
  </g>
</svg>
