<svg width="150" height="149" viewBox="0 0 150 149" fill="none" xmlns="http://www.w3.org/2000/svg">
<g id="Group 4">
<path id="Ellipse 2" d="M2 91C3.10457 91 4 90.1046 4 89C4 87.8954 3.10457 87 2 87C0.89543 87 0 87.8954 0 89C0 90.1046 0.89543 91 2 91Z" fill="black"/>
<path id="Ellipse 83" d="M2 33C3.10457 33 4 32.1046 4 31C4 29.8954 3.10457 29 2 29C0.89543 29 0 29.8954 0 31C0 32.1046 0.89543 33 2 33Z" fill="black"/>
<path id="Ellipse 120" d="M2 4C3.10457 4 4 3.10457 4 2C4 0.89543 3.10457 0 2 0C0.89543 0 0 0.89543 0 2C0 3.10457 0.89543 4 2 4Z" fill="black"/>
<path id="Ellipse 25" d="M2.49298 104.963C3.59755 104.963 4.49298 104.068 4.49298 102.963C4.49298 101.858 3.59755 100.963 2.49298 100.963C1.38841 100.963 0.492981 101.858 0.492981 102.963C0.492981 104.068 1.38841 104.963 2.49298 104.963Z" fill="black"/>
<path id="Ellipse 84" d="M2.49298 46.963C3.59755 46.963 4.49298 46.0676 4.49298 44.963C4.49298 43.8584 3.59755 42.963 2.49298 42.963C1.38841 42.963 0.492981 43.8584 0.492981 44.963C0.492981 46.0676 1.38841 46.963 2.49298 46.963Z" fill="black"/>
<path id="Ellipse 121" d="M2 18C3.10457 18 4 17.1046 4 16C4 14.8954 3.10457 14 2 14C0.89543 14 0 14.8954 0 16C0 17.1046 0.89543 18 2 18Z" fill="black"/>
<path id="Ellipse 37" d="M2.49298 118.926C3.59755 118.926 4.49298 118.031 4.49298 116.926C4.49298 115.821 3.59755 114.926 2.49298 114.926C1.38841 114.926 0.492981 115.821 0.492981 116.926C0.492981 118.031 1.38841 118.926 2.49298 118.926Z" fill="black"/>
<path id="Ellipse 85" d="M2 62C3.10457 62 4 61.1046 4 60C4 58.8954 3.10457 58 2 58C0.89543 58 0 58.8954 0 60C0 61.1046 0.89543 62 2 62Z" fill="black"/>
<path id="Ellipse 49" d="M2 135C3.10457 135 4 134.105 4 133C4 131.895 3.10457 131 2 131C0.89543 131 0 131.895 0 133C0 134.105 0.89543 135 2 135Z" fill="black"/>
<path id="Ellipse 133" d="M2 149C3.10457 149 4 148.105 4 147C4 145.895 3.10457 145 2 145C0.89543 145 0 145.895 0 147C0 148.105 0.89543 149 2 149Z" fill="black"/>
<path id="Ellipse 86" d="M2.49298 75.963C3.59755 75.963 4.49298 75.0676 4.49298 73.963C4.49298 72.8584 3.59755 71.963 2.49298 71.963C1.38841 71.963 0.492981 72.8584 0.492981 73.963C0.492981 75.0676 1.38841 75.963 2.49298 75.963Z" fill="black"/>
<path id="Ellipse 9" d="M55 91C56.1046 91 57 90.1046 57 89C57 87.8954 56.1046 87 55 87C53.8954 87 53 87.8954 53 89C53 90.1046 53.8954 91 55 91Z" fill="black"/>
<path id="Ellipse 50" d="M55 33C56.1046 33 57 32.1046 57 31C57 29.8954 56.1046 29 55 29C53.8954 29 53 29.8954 53 31C53 32.1046 53.8954 33 55 33Z" fill="black"/>
<path id="Ellipse 98" d="M55 4C56.1046 4 57 3.10457 57 2C57 0.89543 56.1046 0 55 0C53.8954 0 53 0.89543 53 2C53 3.10457 53.8954 4 55 4Z" fill="black"/>
<path id="Ellipse 21" d="M55.493 104.963C56.5976 104.963 57.493 104.068 57.493 102.963C57.493 101.858 56.5976 100.963 55.493 100.963C54.3884 100.963 53.493 101.858 53.493 102.963C53.493 104.068 54.3884 104.963 55.493 104.963Z" fill="black"/>
<path id="Ellipse 58" d="M55.493 46.963C56.5976 46.963 57.493 46.0676 57.493 44.963C57.493 43.8584 56.5976 42.963 55.493 42.963C54.3884 42.963 53.493 43.8584 53.493 44.963C53.493 46.0676 54.3884 46.963 55.493 46.963Z" fill="black"/>
<path id="Ellipse 109" d="M55 18C56.1046 18 57 17.1046 57 16C57 14.8954 56.1046 14 55 14C53.8954 14 53 14.8954 53 16C53 17.1046 53.8954 18 55 18Z" fill="black"/>
<path id="Ellipse 33" d="M55.493 118.926C56.5976 118.926 57.493 118.031 57.493 116.926C57.493 115.821 56.5976 114.926 55.493 114.926C54.3884 114.926 53.493 115.821 53.493 116.926C53.493 118.031 54.3884 118.926 55.493 118.926Z" fill="black"/>
<path id="Ellipse 70" d="M55 62C56.1046 62 57 61.1046 57 60C57 58.8954 56.1046 58 55 58C53.8954 58 53 58.8954 53 60C53 61.1046 53.8954 62 55 62Z" fill="black"/>
<path id="Ellipse 45" d="M55 135C56.1046 135 57 134.105 57 133C57 131.895 56.1046 131 55 131C53.8954 131 53 131.895 53 133C53 134.105 53.8954 135 55 135Z" fill="black"/>
<path id="Ellipse 129" d="M55 149C56.1046 149 57 148.105 57 147C57 145.895 56.1046 145 55 145C53.8954 145 53 145.895 53 147C53 148.105 53.8954 149 55 149Z" fill="black"/>
<path id="Ellipse 87" d="M55.493 75.963C56.5976 75.963 57.493 75.0676 57.493 73.963C57.493 72.8584 56.5976 71.963 55.493 71.963C54.3884 71.963 53.493 72.8584 53.493 73.963C53.493 75.0676 54.3884 75.963 55.493 75.963Z" fill="black"/>
<path id="Ellipse 13" d="M108 91C109.105 91 110 90.1046 110 89C110 87.8954 109.105 87 108 87C106.895 87 106 87.8954 106 89C106 90.1046 106.895 91 108 91Z" fill="black"/>
<path id="Ellipse 51" d="M108 33C109.105 33 110 32.1046 110 31C110 29.8954 109.105 29 108 29C106.895 29 106 29.8954 106 31C106 32.1046 106.895 33 108 33Z" fill="black"/>
<path id="Ellipse 99" d="M108 4C109.105 4 110 3.10457 110 2C110 0.89543 109.105 0 108 0C106.895 0 106 0.89543 106 2C106 3.10457 106.895 4 108 4Z" fill="black"/>
<path id="Ellipse 17" d="M108.493 104.963C109.598 104.963 110.493 104.068 110.493 102.963C110.493 101.858 109.598 100.963 108.493 100.963C107.388 100.963 106.493 101.858 106.493 102.963C106.493 104.068 107.388 104.963 108.493 104.963Z" fill="black"/>
<path id="Ellipse 59" d="M108.493 46.963C109.598 46.963 110.493 46.0676 110.493 44.963C110.493 43.8584 109.598 42.963 108.493 42.963C107.388 42.963 106.493 43.8584 106.493 44.963C106.493 46.0676 107.388 46.963 108.493 46.963Z" fill="black"/>
<path id="Ellipse 110" d="M108 18C109.105 18 110 17.1046 110 16C110 14.8954 109.105 14 108 14C106.895 14 106 14.8954 106 16C106 17.1046 106.895 18 108 18Z" fill="black"/>
<path id="Ellipse 29" d="M108.493 118.926C109.598 118.926 110.493 118.031 110.493 116.926C110.493 115.821 109.598 114.926 108.493 114.926C107.388 114.926 106.493 115.821 106.493 116.926C106.493 118.031 107.388 118.926 108.493 118.926Z" fill="black"/>
<path id="Ellipse 71" d="M108 62C109.105 62 110 61.1046 110 60C110 58.8954 109.105 58 108 58C106.895 58 106 58.8954 106 60C106 61.1046 106.895 62 108 62Z" fill="black"/>
<path id="Ellipse 41" d="M108 135C109.105 135 110 134.105 110 133C110 131.895 109.105 131 108 131C106.895 131 106 131.895 106 133C106 134.105 106.895 135 108 135Z" fill="black"/>
<path id="Ellipse 125" d="M108 149C109.105 149 110 148.105 110 147C110 145.895 109.105 145 108 145C106.895 145 106 145.895 106 147C106 148.105 106.895 149 108 149Z" fill="black"/>
<path id="Ellipse 88" d="M108.493 75.963C109.598 75.963 110.493 75.0676 110.493 73.963C110.493 72.8584 109.598 71.963 108.493 71.963C107.388 71.963 106.493 72.8584 106.493 73.963C106.493 75.0676 107.388 75.963 108.493 75.963Z" fill="black"/>
<path id="Ellipse 5" d="M28 91C29.1046 91 30 90.1046 30 89C30 87.8954 29.1046 87 28 87C26.8954 87 26 87.8954 26 89C26 90.1046 26.8954 91 28 91Z" fill="black"/>
<path id="Ellipse 68" d="M28 33C29.1046 33 30 32.1046 30 31C30 29.8954 29.1046 29 28 29C26.8954 29 26 29.8954 26 31C26 32.1046 26.8954 33 28 33Z" fill="black"/>
<path id="Ellipse 100" d="M28 4C29.1046 4 30 3.10457 30 2C30 0.89543 29.1046 0 28 0C26.8954 0 26 0.89543 26 2C26 3.10457 26.8954 4 28 4Z" fill="black"/>
<path id="Ellipse 23" d="M28.493 104.963C29.5976 104.963 30.493 104.068 30.493 102.963C30.493 101.858 29.5976 100.963 28.493 100.963C27.3884 100.963 26.493 101.858 26.493 102.963C26.493 104.068 27.3884 104.963 28.493 104.963Z" fill="black"/>
<path id="Ellipse 69" d="M28.493 46.963C29.5976 46.963 30.493 46.0676 30.493 44.963C30.493 43.8584 29.5976 42.963 28.493 42.963C27.3884 42.963 26.493 43.8584 26.493 44.963C26.493 46.0676 27.3884 46.963 28.493 46.963Z" fill="black"/>
<path id="Ellipse 111" d="M28 18C29.1046 18 30 17.1046 30 16C30 14.8954 29.1046 14 28 14C26.8954 14 26 14.8954 26 16C26 17.1046 26.8954 18 28 18Z" fill="black"/>
<path id="Ellipse 35" d="M28.493 118.926C29.5976 118.926 30.493 118.031 30.493 116.926C30.493 115.821 29.5976 114.926 28.493 114.926C27.3884 114.926 26.493 115.821 26.493 116.926C26.493 118.031 27.3884 118.926 28.493 118.926Z" fill="black"/>
<path id="Ellipse 72" d="M28 62C29.1046 62 30 61.1046 30 60C30 58.8954 29.1046 58 28 58C26.8954 58 26 58.8954 26 60C26 61.1046 26.8954 62 28 62Z" fill="black"/>
<path id="Ellipse 47" d="M28 135C29.1046 135 30 134.105 30 133C30 131.895 29.1046 131 28 131C26.8954 131 26 131.895 26 133C26 134.105 26.8954 135 28 135Z" fill="black"/>
<path id="Ellipse 131" d="M28 149C29.1046 149 30 148.105 30 147C30 145.895 29.1046 145 28 145C26.8954 145 26 145.895 26 147C26 148.105 26.8954 149 28 149Z" fill="black"/>
<path id="Ellipse 89" d="M28.493 75.963C29.5976 75.963 30.493 75.0676 30.493 73.963C30.493 72.8584 29.5976 71.963 28.493 71.963C27.3884 71.963 26.493 72.8584 26.493 73.963C26.493 75.0676 27.3884 75.963 28.493 75.963Z" fill="black"/>
<path id="Ellipse 7" d="M81 91C82.1046 91 83 90.1046 83 89C83 87.8954 82.1046 87 81 87C79.8954 87 79 87.8954 79 89C79 90.1046 79.8954 91 81 91Z" fill="black"/>
<path id="Ellipse 52" d="M81 33C82.1046 33 83 32.1046 83 31C83 29.8954 82.1046 29 81 29C79.8954 29 79 29.8954 79 31C79 32.1046 79.8954 33 81 33Z" fill="black"/>
<path id="Ellipse 101" d="M81 4C82.1046 4 83 3.10457 83 2C83 0.89543 82.1046 0 81 0C79.8954 0 79 0.89543 79 2C79 3.10457 79.8954 4 81 4Z" fill="black"/>
<path id="Ellipse 19" d="M81.493 104.963C82.5976 104.963 83.493 104.068 83.493 102.963C83.493 101.858 82.5976 100.963 81.493 100.963C80.3884 100.963 79.493 101.858 79.493 102.963C79.493 104.068 80.3884 104.963 81.493 104.963Z" fill="black"/>
<path id="Ellipse 60" d="M81.493 46.963C82.5976 46.963 83.493 46.0676 83.493 44.963C83.493 43.8584 82.5976 42.963 81.493 42.963C80.3884 42.963 79.493 43.8584 79.493 44.963C79.493 46.0676 80.3884 46.963 81.493 46.963Z" fill="black"/>
<path id="Ellipse 112" d="M81 18C82.1046 18 83 17.1046 83 16C83 14.8954 82.1046 14 81 14C79.8954 14 79 14.8954 79 16C79 17.1046 79.8954 18 81 18Z" fill="black"/>
<path id="Ellipse 31" d="M81.493 118.926C82.5976 118.926 83.493 118.031 83.493 116.926C83.493 115.821 82.5976 114.926 81.493 114.926C80.3884 114.926 79.493 115.821 79.493 116.926C79.493 118.031 80.3884 118.926 81.493 118.926Z" fill="black"/>
<path id="Ellipse 73" d="M81 62C82.1046 62 83 61.1046 83 60C83 58.8954 82.1046 58 81 58C79.8954 58 79 58.8954 79 60C79 61.1046 79.8954 62 81 62Z" fill="black"/>
<path id="Ellipse 43" d="M81 135C82.1046 135 83 134.105 83 133C83 131.895 82.1046 131 81 131C79.8954 131 79 131.895 79 133C79 134.105 79.8954 135 81 135Z" fill="black"/>
<path id="Ellipse 127" d="M81 149C82.1046 149 83 148.105 83 147C83 145.895 82.1046 145 81 145C79.8954 145 79 145.895 79 147C79 148.105 79.8954 149 81 149Z" fill="black"/>
<path id="Ellipse 90" d="M81.493 75.963C82.5976 75.963 83.493 75.0676 83.493 73.963C83.493 72.8584 82.5976 71.963 81.493 71.963C80.3884 71.963 79.493 72.8584 79.493 73.963C79.493 75.0676 80.3884 75.963 81.493 75.963Z" fill="black"/>
<path id="Ellipse 11" d="M133 91C134.105 91 135 90.1046 135 89C135 87.8954 134.105 87 133 87C131.895 87 131 87.8954 131 89C131 90.1046 131.895 91 133 91Z" fill="black"/>
<path id="Ellipse 53" d="M133 33C134.105 33 135 32.1046 135 31C135 29.8954 134.105 29 133 29C131.895 29 131 29.8954 131 31C131 32.1046 131.895 33 133 33Z" fill="black"/>
<path id="Ellipse 102" d="M133 4C134.105 4 135 3.10457 135 2C135 0.89543 134.105 0 133 0C131.895 0 131 0.89543 131 2C131 3.10457 131.895 4 133 4Z" fill="black"/>
<path id="Ellipse 15" d="M133.493 104.963C134.598 104.963 135.493 104.068 135.493 102.963C135.493 101.858 134.598 100.963 133.493 100.963C132.388 100.963 131.493 101.858 131.493 102.963C131.493 104.068 132.388 104.963 133.493 104.963Z" fill="black"/>
<path id="Ellipse 61" d="M133.493 46.963C134.598 46.963 135.493 46.0676 135.493 44.963C135.493 43.8584 134.598 42.963 133.493 42.963C132.388 42.963 131.493 43.8584 131.493 44.963C131.493 46.0676 132.388 46.963 133.493 46.963Z" fill="black"/>
<path id="Ellipse 113" d="M133 18C134.105 18 135 17.1046 135 16C135 14.8954 134.105 14 133 14C131.895 14 131 14.8954 131 16C131 17.1046 131.895 18 133 18Z" fill="black"/>
<path id="Ellipse 27" d="M133.493 118.926C134.598 118.926 135.493 118.031 135.493 116.926C135.493 115.821 134.598 114.926 133.493 114.926C132.388 114.926 131.493 115.821 131.493 116.926C131.493 118.031 132.388 118.926 133.493 118.926Z" fill="black"/>
<path id="Ellipse 74" d="M133 62C134.105 62 135 61.1046 135 60C135 58.8954 134.105 58 133 58C131.895 58 131 58.8954 131 60C131 61.1046 131.895 62 133 62Z" fill="black"/>
<path id="Ellipse 39" d="M133 135C134.105 135 135 134.105 135 133C135 131.895 134.105 131 133 131C131.895 131 131 131.895 131 133C131 134.105 131.895 135 133 135Z" fill="black"/>
<path id="Ellipse 123" d="M133 149C134.105 149 135 148.105 135 147C135 145.895 134.105 145 133 145C131.895 145 131 145.895 131 147C131 148.105 131.895 149 133 149Z" fill="black"/>
<path id="Ellipse 91" d="M133.493 75.963C134.598 75.963 135.493 75.0676 135.493 73.963C135.493 72.8584 134.598 71.963 133.493 71.963C132.388 71.963 131.493 72.8584 131.493 73.963C131.493 75.0676 132.388 75.963 133.493 75.963Z" fill="black"/>
<path id="Ellipse 3" d="M16 91C17.1046 91 18 90.1046 18 89C18 87.8954 17.1046 87 16 87C14.8954 87 14 87.8954 14 89C14 90.1046 14.8954 91 16 91Z" fill="black"/>
<path id="Ellipse 75" d="M16 33C17.1046 33 18 32.1046 18 31C18 29.8954 17.1046 29 16 29C14.8954 29 14 29.8954 14 31C14 32.1046 14.8954 33 16 33Z" fill="black"/>
<path id="Ellipse 108" d="M16 4C17.1046 4 18 3.10457 18 2C18 0.89543 17.1046 0 16 0C14.8954 0 14 0.89543 14 2C14 3.10457 14.8954 4 16 4Z" fill="black"/>
<path id="Ellipse 24" d="M16.493 104.963C17.5976 104.963 18.493 104.068 18.493 102.963C18.493 101.858 17.5976 100.963 16.493 100.963C15.3884 100.963 14.493 101.858 14.493 102.963C14.493 104.068 15.3884 104.963 16.493 104.963Z" fill="black"/>
<path id="Ellipse 76" d="M16.493 46.963C17.5976 46.963 18.493 46.0676 18.493 44.963C18.493 43.8584 17.5976 42.963 16.493 42.963C15.3884 42.963 14.493 43.8584 14.493 44.963C14.493 46.0676 15.3884 46.963 16.493 46.963Z" fill="black"/>
<path id="Ellipse 114" d="M16 18C17.1046 18 18 17.1046 18 16C18 14.8954 17.1046 14 16 14C14.8954 14 14 14.8954 14 16C14 17.1046 14.8954 18 16 18Z" fill="black"/>
<path id="Ellipse 36" d="M16.493 118.926C17.5976 118.926 18.493 118.031 18.493 116.926C18.493 115.821 17.5976 114.926 16.493 114.926C15.3884 114.926 14.493 115.821 14.493 116.926C14.493 118.031 15.3884 118.926 16.493 118.926Z" fill="black"/>
<path id="Ellipse 77" d="M16 62C17.1046 62 18 61.1046 18 60C18 58.8954 17.1046 58 16 58C14.8954 58 14 58.8954 14 60C14 61.1046 14.8954 62 16 62Z" fill="black"/>
<path id="Ellipse 48" d="M16 135C17.1046 135 18 134.105 18 133C18 131.895 17.1046 131 16 131C14.8954 131 14 131.895 14 133C14 134.105 14.8954 135 16 135Z" fill="black"/>
<path id="Ellipse 132" d="M16 149C17.1046 149 18 148.105 18 147C18 145.895 17.1046 145 16 145C14.8954 145 14 145.895 14 147C14 148.105 14.8954 149 16 149Z" fill="black"/>
<path id="Ellipse 92" d="M16.493 75.963C17.5976 75.963 18.493 75.0676 18.493 73.963C18.493 72.8584 17.5976 71.963 16.493 71.963C15.3884 71.963 14.493 72.8584 14.493 73.963C14.493 75.0676 15.3884 75.963 16.493 75.963Z" fill="black"/>
<path id="Ellipse 8" d="M68 91C69.1046 91 70 90.1046 70 89C70 87.8954 69.1046 87 68 87C66.8954 87 66 87.8954 66 89C66 90.1046 66.8954 91 68 91Z" fill="black"/>
<path id="Ellipse 54" d="M68 33C69.1046 33 70 32.1046 70 31C70 29.8954 69.1046 29 68 29C66.8954 29 66 29.8954 66 31C66 32.1046 66.8954 33 68 33Z" fill="black"/>
<path id="Ellipse 103" d="M68 4C69.1046 4 70 3.10457 70 2C70 0.89543 69.1046 0 68 0C66.8954 0 66 0.89543 66 2C66 3.10457 66.8954 4 68 4Z" fill="black"/>
<path id="Ellipse 20" d="M68.493 104.963C69.5976 104.963 70.493 104.068 70.493 102.963C70.493 101.858 69.5976 100.963 68.493 100.963C67.3884 100.963 66.493 101.858 66.493 102.963C66.493 104.068 67.3884 104.963 68.493 104.963Z" fill="black"/>
<path id="Ellipse 62" d="M68.493 46.963C69.5976 46.963 70.493 46.0676 70.493 44.963C70.493 43.8584 69.5976 42.963 68.493 42.963C67.3884 42.963 66.493 43.8584 66.493 44.963C66.493 46.0676 67.3884 46.963 68.493 46.963Z" fill="black"/>
<path id="Ellipse 115" d="M68 18C69.1046 18 70 17.1046 70 16C70 14.8954 69.1046 14 68 14C66.8954 14 66 14.8954 66 16C66 17.1046 66.8954 18 68 18Z" fill="black"/>
<path id="Ellipse 32" d="M68.493 118.926C69.5976 118.926 70.493 118.031 70.493 116.926C70.493 115.821 69.5976 114.926 68.493 114.926C67.3884 114.926 66.493 115.821 66.493 116.926C66.493 118.031 67.3884 118.926 68.493 118.926Z" fill="black"/>
<path id="Ellipse 78" d="M68 62C69.1046 62 70 61.1046 70 60C70 58.8954 69.1046 58 68 58C66.8954 58 66 58.8954 66 60C66 61.1046 66.8954 62 68 62Z" fill="black"/>
<path id="Ellipse 44" d="M68 135C69.1046 135 70 134.105 70 133C70 131.895 69.1046 131 68 131C66.8954 131 66 131.895 66 133C66 134.105 66.8954 135 68 135Z" fill="black"/>
<path id="Ellipse 128" d="M68 149C69.1046 149 70 148.105 70 147C70 145.895 69.1046 145 68 145C66.8954 145 66 145.895 66 147C66 148.105 66.8954 149 68 149Z" fill="black"/>
<path id="Ellipse 93" d="M68.493 75.963C69.5976 75.963 70.493 75.0676 70.493 73.963C70.493 72.8584 69.5976 71.963 68.493 71.963C67.3884 71.963 66.493 72.8584 66.493 73.963C66.493 75.0676 67.3884 75.963 68.493 75.963Z" fill="black"/>
<path id="Ellipse 12" d="M121 91C122.105 91 123 90.1046 123 89C123 87.8954 122.105 87 121 87C119.895 87 119 87.8954 119 89C119 90.1046 119.895 91 121 91Z" fill="black"/>
<path id="Ellipse 55" d="M121 33C122.105 33 123 32.1046 123 31C123 29.8954 122.105 29 121 29C119.895 29 119 29.8954 119 31C119 32.1046 119.895 33 121 33Z" fill="black"/>
<path id="Ellipse 104" d="M121 4C122.105 4 123 3.10457 123 2C123 0.89543 122.105 0 121 0C119.895 0 119 0.89543 119 2C119 3.10457 119.895 4 121 4Z" fill="black"/>
<path id="Ellipse 16" d="M121.493 104.963C122.598 104.963 123.493 104.068 123.493 102.963C123.493 101.858 122.598 100.963 121.493 100.963C120.388 100.963 119.493 101.858 119.493 102.963C119.493 104.068 120.388 104.963 121.493 104.963Z" fill="black"/>
<path id="Ellipse 63" d="M121.493 46.963C122.598 46.963 123.493 46.0676 123.493 44.963C123.493 43.8584 122.598 42.963 121.493 42.963C120.388 42.963 119.493 43.8584 119.493 44.963C119.493 46.0676 120.388 46.963 121.493 46.963Z" fill="black"/>
<path id="Ellipse 116" d="M121 18C122.105 18 123 17.1046 123 16C123 14.8954 122.105 14 121 14C119.895 14 119 14.8954 119 16C119 17.1046 119.895 18 121 18Z" fill="black"/>
<path id="Ellipse 28" d="M121.493 118.926C122.598 118.926 123.493 118.031 123.493 116.926C123.493 115.821 122.598 114.926 121.493 114.926C120.388 114.926 119.493 115.821 119.493 116.926C119.493 118.031 120.388 118.926 121.493 118.926Z" fill="black"/>
<path id="Ellipse 79" d="M121 62C122.105 62 123 61.1046 123 60C123 58.8954 122.105 58 121 58C119.895 58 119 58.8954 119 60C119 61.1046 119.895 62 121 62Z" fill="black"/>
<path id="Ellipse 40" d="M121 135C122.105 135 123 134.105 123 133C123 131.895 122.105 131 121 131C119.895 131 119 131.895 119 133C119 134.105 119.895 135 121 135Z" fill="black"/>
<path id="Ellipse 124" d="M121 149C122.105 149 123 148.105 123 147C123 145.895 122.105 145 121 145C119.895 145 119 145.895 119 147C119 148.105 119.895 149 121 149Z" fill="black"/>
<path id="Ellipse 94" d="M121.493 75.963C122.598 75.963 123.493 75.0676 123.493 73.963C123.493 72.8584 122.598 71.963 121.493 71.963C120.388 71.963 119.493 72.8584 119.493 73.963C119.493 75.0676 120.388 75.963 121.493 75.963Z" fill="black"/>
<path id="Ellipse 4" d="M42 91C43.1046 91 44 90.1046 44 89C44 87.8954 43.1046 87 42 87C40.8954 87 40 87.8954 40 89C40 90.1046 40.8954 91 42 91Z" fill="black"/>
<path id="Ellipse 64" d="M42 33C43.1046 33 44 32.1046 44 31C44 29.8954 43.1046 29 42 29C40.8954 29 40 29.8954 40 31C40 32.1046 40.8954 33 42 33Z" fill="black"/>
<path id="Ellipse 105" d="M42 4C43.1046 4 44 3.10457 44 2C44 0.89543 43.1046 0 42 0C40.8954 0 40 0.89543 40 2C40 3.10457 40.8954 4 42 4Z" fill="black"/>
<path id="Ellipse 22" d="M42.493 104.963C43.5976 104.963 44.493 104.068 44.493 102.963C44.493 101.858 43.5976 100.963 42.493 100.963C41.3884 100.963 40.493 101.858 40.493 102.963C40.493 104.068 41.3884 104.963 42.493 104.963Z" fill="black"/>
<path id="Ellipse 65" d="M42.493 46.963C43.5976 46.963 44.493 46.0676 44.493 44.963C44.493 43.8584 43.5976 42.963 42.493 42.963C41.3884 42.963 40.493 43.8584 40.493 44.963C40.493 46.0676 41.3884 46.963 42.493 46.963Z" fill="black"/>
<path id="Ellipse 117" d="M42 18C43.1046 18 44 17.1046 44 16C44 14.8954 43.1046 14 42 14C40.8954 14 40 14.8954 40 16C40 17.1046 40.8954 18 42 18Z" fill="black"/>
<path id="Ellipse 34" d="M42.493 118.926C43.5976 118.926 44.493 118.031 44.493 116.926C44.493 115.821 43.5976 114.926 42.493 114.926C41.3884 114.926 40.493 115.821 40.493 116.926C40.493 118.031 41.3884 118.926 42.493 118.926Z" fill="black"/>
<path id="Ellipse 80" d="M42 62C43.1046 62 44 61.1046 44 60C44 58.8954 43.1046 58 42 58C40.8954 58 40 58.8954 40 60C40 61.1046 40.8954 62 42 62Z" fill="black"/>
<path id="Ellipse 46" d="M42 135C43.1046 135 44 134.105 44 133C44 131.895 43.1046 131 42 131C40.8954 131 40 131.895 40 133C40 134.105 40.8954 135 42 135Z" fill="black"/>
<path id="Ellipse 130" d="M42 149C43.1046 149 44 148.105 44 147C44 145.895 43.1046 145 42 145C40.8954 145 40 145.895 40 147C40 148.105 40.8954 149 42 149Z" fill="black"/>
<path id="Ellipse 95" d="M42.493 75.963C43.5976 75.963 44.493 75.0676 44.493 73.963C44.493 72.8584 43.5976 71.963 42.493 71.963C41.3884 71.963 40.493 72.8584 40.493 73.963C40.493 75.0676 41.3884 75.963 42.493 75.963Z" fill="black"/>
<path id="Ellipse 6" d="M94 91C95.1046 91 96 90.1046 96 89C96 87.8954 95.1046 87 94 87C92.8954 87 92 87.8954 92 89C92 90.1046 92.8954 91 94 91Z" fill="black"/>
<path id="Ellipse 56" d="M94 33C95.1046 33 96 32.1046 96 31C96 29.8954 95.1046 29 94 29C92.8954 29 92 29.8954 92 31C92 32.1046 92.8954 33 94 33Z" fill="black"/>
<path id="Ellipse 106" d="M94 4C95.1046 4 96 3.10457 96 2C96 0.89543 95.1046 0 94 0C92.8954 0 92 0.89543 92 2C92 3.10457 92.8954 4 94 4Z" fill="black"/>
<path id="Ellipse 18" d="M94.493 104.963C95.5976 104.963 96.493 104.068 96.493 102.963C96.493 101.858 95.5976 100.963 94.493 100.963C93.3884 100.963 92.493 101.858 92.493 102.963C92.493 104.068 93.3884 104.963 94.493 104.963Z" fill="black"/>
<path id="Ellipse 66" d="M94.493 46.963C95.5976 46.963 96.493 46.0676 96.493 44.963C96.493 43.8584 95.5976 42.963 94.493 42.963C93.3884 42.963 92.493 43.8584 92.493 44.963C92.493 46.0676 93.3884 46.963 94.493 46.963Z" fill="black"/>
<path id="Ellipse 118" d="M94 18C95.1046 18 96 17.1046 96 16C96 14.8954 95.1046 14 94 14C92.8954 14 92 14.8954 92 16C92 17.1046 92.8954 18 94 18Z" fill="black"/>
<path id="Ellipse 30" d="M94.493 118.926C95.5976 118.926 96.493 118.031 96.493 116.926C96.493 115.821 95.5976 114.926 94.493 114.926C93.3884 114.926 92.493 115.821 92.493 116.926C92.493 118.031 93.3884 118.926 94.493 118.926Z" fill="black"/>
<path id="Ellipse 81" d="M94 62C95.1046 62 96 61.1046 96 60C96 58.8954 95.1046 58 94 58C92.8954 58 92 58.8954 92 60C92 61.1046 92.8954 62 94 62Z" fill="black"/>
<path id="Ellipse 42" d="M94 135C95.1046 135 96 134.105 96 133C96 131.895 95.1046 131 94 131C92.8954 131 92 131.895 92 133C92 134.105 92.8954 135 94 135Z" fill="black"/>
<path id="Ellipse 126" d="M94 149C95.1046 149 96 148.105 96 147C96 145.895 95.1046 145 94 145C92.8954 145 92 145.895 92 147C92 148.105 92.8954 149 94 149Z" fill="black"/>
<path id="Ellipse 96" d="M94.493 75.963C95.5976 75.963 96.493 75.0676 96.493 73.963C96.493 72.8584 95.5976 71.963 94.493 71.963C93.3884 71.963 92.493 72.8584 92.493 73.963C92.493 75.0676 93.3884 75.963 94.493 75.963Z" fill="black"/>
<path id="Ellipse 10" d="M147 91C148.105 91 149 90.1046 149 89C149 87.8954 148.105 87 147 87C145.895 87 145 87.8954 145 89C145 90.1046 145.895 91 147 91Z" fill="black"/>
<path id="Ellipse 57" d="M147 33C148.105 33 149 32.1046 149 31C149 29.8954 148.105 29 147 29C145.895 29 145 29.8954 145 31C145 32.1046 145.895 33 147 33Z" fill="black"/>
<path id="Ellipse 107" d="M147 4C148.105 4 149 3.10457 149 2C149 0.89543 148.105 0 147 0C145.895 0 145 0.89543 145 2C145 3.10457 145.895 4 147 4Z" fill="black"/>
<path id="Ellipse 14" d="M147.493 104.963C148.598 104.963 149.493 104.068 149.493 102.963C149.493 101.858 148.598 100.963 147.493 100.963C146.388 100.963 145.493 101.858 145.493 102.963C145.493 104.068 146.388 104.963 147.493 104.963Z" fill="black"/>
<path id="Ellipse 67" d="M147.493 46.963C148.598 46.963 149.493 46.0676 149.493 44.963C149.493 43.8584 148.598 42.963 147.493 42.963C146.388 42.963 145.493 43.8584 145.493 44.963C145.493 46.0676 146.388 46.963 147.493 46.963Z" fill="black"/>
<path id="Ellipse 119" d="M147 18C148.105 18 149 17.1046 149 16C149 14.8954 148.105 14 147 14C145.895 14 145 14.8954 145 16C145 17.1046 145.895 18 147 18Z" fill="black"/>
<path id="Ellipse 26" d="M147.493 118.926C148.598 118.926 149.493 118.031 149.493 116.926C149.493 115.821 148.598 114.926 147.493 114.926C146.388 114.926 145.493 115.821 145.493 116.926C145.493 118.031 146.388 118.926 147.493 118.926Z" fill="black"/>
<path id="Ellipse 82" d="M147 62C148.105 62 149 61.1046 149 60C149 58.8954 148.105 58 147 58C145.895 58 145 58.8954 145 60C145 61.1046 145.895 62 147 62Z" fill="black"/>
<path id="Ellipse 38" d="M147 135C148.105 135 149 134.105 149 133C149 131.895 148.105 131 147 131C145.895 131 145 131.895 145 133C145 134.105 145.895 135 147 135Z" fill="black"/>
<path id="Ellipse 122" d="M147 149C148.105 149 149 148.105 149 147C149 145.895 148.105 145 147 145C145.895 145 145 145.895 145 147C145 148.105 145.895 149 147 149Z" fill="black"/>
<path id="Ellipse 97" d="M147.493 75.963C148.598 75.963 149.493 75.0676 149.493 73.963C149.493 72.8584 148.598 71.963 147.493 71.963C146.388 71.963 145.493 72.8584 145.493 73.963C145.493 75.0676 146.388 75.963 147.493 75.963Z" fill="black"/>
</g>
</svg>
