<svg width="140" height="79" viewBox="0 0 140 79" fill="none" xmlns="http://www.w3.org/2000/svg">
<g id="Group 45">
<path id="Line 13" d="M137 43C138.657 43 140 41.6569 140 40C140 38.3432 138.657 37 137 37L137 43ZM79 43L137 43L137 37L79 37L79 43Z" fill="#DE964E"/>
<g id="Group 44">
<circle id="Ellipse 147" cx="39.5" cy="39.5" r="37.5" stroke="#DE964E" stroke-width="4"/>
<circle id="Ellipse 148" cx="39.5" cy="39.5" r="29.5" fill="black"/>
<g id="Group">
<path id="Vector" d="M57.3194 49.8438C57.1914 50.1334 57.1905 50.4676 56.9986 50.7377C56.8689 50.7003 56.797 50.5835 56.7072 50.4935C53.2273 47.0275 49.7508 43.5571 46.2638 40.0974C46.0345 39.8692 46.0328 39.7534 46.2629 39.5243C49.7491 36.0646 53.2264 32.5942 56.7055 29.1274C56.7961 29.0373 56.8903 28.9509 56.9853 28.86C57.1879 29.1541 57.1932 29.4865 57.3194 29.7771C57.3194 36.4657 57.3194 43.1552 57.3194 49.8438Z" fill="white"/>
<path id="Vector_2" d="M55.4723 27.3226C55.3755 27.4269 55.2991 27.5142 55.2165 27.5962C50.6668 32.1379 46.1163 36.6796 41.5657 41.2221C40.5849 42.2016 39.4433 42.5527 38.1009 42.1169C37.5945 41.952 37.1769 41.6445 36.8055 41.2738C32.2124 36.692 27.6201 32.1076 23.0287 27.524C22.9709 27.467 22.9203 27.4028 22.8519 27.3262C23.2303 27.1248 23.6159 27.041 24.0148 27.0098C24.1445 27 24.2751 27.0027 24.4048 27.0027C34.2398 27.0027 44.0756 27.0036 53.9105 27C54.4471 27 54.9615 27.0704 55.4723 27.3226Z" fill="white"/>
<path id="Vector_3" d="M55.4475 52.3088C54.9535 52.5557 54.4338 52.6216 53.8945 52.6207C45.7511 52.6181 37.6078 52.6189 29.4645 52.6189C27.7507 52.6189 26.0369 52.6172 24.3231 52.6198C23.8194 52.6207 23.337 52.537 22.8803 52.3141C22.8963 52.1778 23.0091 52.1199 23.0882 52.0405C26.5833 48.5541 30.0819 45.073 33.569 41.5785C33.8018 41.345 33.9102 41.3806 34.118 41.591C34.7071 42.1899 35.2588 42.8307 35.9304 43.3404C38.1027 44.9883 40.9749 44.7771 42.9721 42.8316C43.4048 42.41 43.8375 41.9885 44.247 41.5446C44.4345 41.3423 44.5358 41.3691 44.7188 41.5509C47.5138 44.3475 50.3177 47.1344 53.1153 49.9292C53.8927 50.7073 54.655 51.4996 55.4475 52.3088Z" fill="white"/>
<path id="Vector_4" d="M21.3193 50.7671C21.0972 50.3072 21.0004 49.8589 21.0004 49.3911C20.9995 42.9992 21.0004 36.6065 21.0004 30.2147C21.0004 29.7468 21.1035 29.3029 21.3051 28.8805C21.4411 28.9161 21.5059 29.0231 21.5876 29.1042C25.0854 32.5889 28.5814 36.0753 32.0835 39.5564C32.2683 39.74 32.3128 39.8416 32.0995 40.052C28.5787 43.5464 25.0667 47.0516 21.5521 50.5532C21.4873 50.6192 21.4153 50.6798 21.3193 50.7671Z" fill="white"/>
</g>
</g>
</g>
</svg>
