<svg width="50" height="48" viewBox="0 0 50 48" fill="none" xmlns="http://www.w3.org/2000/svg">
<g id="Group">
<path id="Vector" d="M25.3995 48C24.7711 48 24.1516 48 23.5233 48C23.4171 47.9735 23.3109 47.9382 23.2135 47.9293C20.3196 47.7173 17.5318 47.037 14.9211 45.7648C7.49595 42.1513 2.95591 36.2849 1.36291 28.1833C1.18591 27.2998 1.10626 26.3987 0.991211 25.4975C0.991211 24.4992 0.991211 23.5008 0.991211 22.4936C1.10626 22.1933 1.07087 21.8752 1.10627 21.5748C1.67266 16.3887 3.66391 11.8211 7.1685 7.95141C10.8767 3.85202 15.4698 1.30756 20.9391 0.362231C21.7975 0.212038 22.6649 0.123689 23.5322 0C24.5322 0 25.5322 0 26.5411 0C26.665 0.0265047 26.7801 0.0706792 26.904 0.0795141C30.6298 0.362231 34.1167 1.42242 37.3027 3.37493C43.542 7.18277 47.3652 12.6869 48.7104 19.8697C48.8697 20.7443 48.9582 21.6278 49.0821 22.5025C49.0821 23.4743 49.0821 24.4373 49.0821 25.4092C48.9759 26.2308 48.9228 27.0525 48.7723 27.8564C47.2147 36.1966 42.595 42.2043 34.9309 45.8708C33.9043 46.3655 32.8335 46.7454 31.7184 47.0458C31.7007 46.9486 31.6918 46.8956 31.6918 46.8338C31.6918 41.1176 31.6918 35.3926 31.683 29.6764C31.683 29.323 31.8423 29.3142 32.1078 29.3142C33.5503 29.323 34.984 29.3054 36.4266 29.323C36.7629 29.323 36.8868 29.2347 36.9222 28.8989C37.1169 27.238 37.3293 25.5859 37.5594 23.9249C37.6656 23.1916 37.639 23.3065 37.0018 23.3065C35.3734 23.2976 33.745 23.3065 32.1166 23.3065C31.9042 23.3065 31.6741 23.3683 31.6741 23.0061C31.6918 21.6013 31.6564 20.1966 31.7095 18.7918C31.7626 17.5814 32.391 16.9188 33.5769 16.6626C33.9486 16.5831 34.3203 16.5743 34.7008 16.5743C35.6124 16.5654 36.5151 16.5654 37.4266 16.5743C37.6921 16.5743 37.816 16.5213 37.816 16.2209C37.7983 14.6571 37.8072 13.0933 37.816 11.5295C37.816 11.2733 37.7452 11.185 37.4797 11.1585C35.8602 11.0171 34.2318 10.9288 32.6034 10.9906C31.2051 11.0436 29.8776 11.3882 28.6917 12.148C26.6119 13.4821 25.7092 15.4964 25.5145 17.8642C25.3818 19.534 25.4703 21.2038 25.4703 22.8735C25.4703 23.2181 25.3729 23.3241 25.0189 23.3241C23.5941 23.3065 22.1692 23.3241 20.7444 23.3065C20.4081 23.3065 20.2842 23.386 20.2842 23.7482C20.3019 25.471 20.3019 27.185 20.2842 28.9078C20.2842 29.2347 20.3815 29.3407 20.709 29.3319C22.0984 29.3142 23.4967 29.3407 24.8862 29.3142C25.3287 29.3054 25.4614 29.4114 25.4614 29.8708C25.4437 35.746 25.4526 41.6212 25.4526 47.4964C25.4437 47.6643 25.4791 47.841 25.3995 48Z" fill="black"/>
</g>
</svg>
