<svg width="50" height="48" viewBox="0 0 50 48" fill="none" xmlns="http://www.w3.org/2000/svg">
<g id="Group">
<path id="Vector" d="M23.5233 0C24.5233 0 25.5234 0 26.5323 0C26.6562 0.0265047 26.7712 0.0706792 26.8951 0.0795141C30.6387 0.362231 34.1433 1.43125 37.3381 3.3926C43.542 7.20928 47.3652 12.6957 48.7104 19.8697C48.8697 20.7443 48.9582 21.6278 49.0821 22.5025C49.0821 23.5008 49.0821 24.4992 49.0821 25.5063C48.9493 25.7979 49.0024 26.1248 48.967 26.4252C48.4537 31.1695 46.728 35.4279 43.6924 39.1209C39.9223 43.7151 35.0902 46.5599 29.2227 47.6289C28.3377 47.788 27.435 47.8763 26.5411 48C25.5411 48 24.541 48 23.5322 48C22.948 47.9293 22.3551 47.8675 21.771 47.7791C17.3372 47.1518 13.3547 45.4644 9.88546 42.6195C5.29231 38.847 2.42491 34.032 1.36291 28.1745C1.20361 27.291 1.11511 26.3898 0.991211 25.4887C0.991211 24.4903 0.991211 23.492 0.991211 22.4848C1.11511 22.1844 1.07086 21.8664 1.10626 21.566C1.66381 16.4859 3.58426 11.989 6.98265 8.15461C10.7174 3.94036 15.3725 1.3164 20.9391 0.353396C21.7976 0.212038 22.6648 0.123689 23.5233 0ZM25.2225 10.222C23.0808 10.2308 21.0984 10.1955 19.1072 10.3192C17.5053 10.4163 15.9743 10.7432 14.6202 11.6532C12.3635 13.1728 11.4431 15.4081 11.328 18.0144C11.151 22.0077 11.1599 26.0099 11.328 30.0121C11.39 31.5759 11.7617 33.0779 12.6467 34.3943C14.1689 36.6472 16.4079 37.566 19.0187 37.6808C23.0189 37.8664 27.0279 37.8575 31.0369 37.6808C33.2317 37.5837 35.2141 36.9122 36.7452 35.2336C38.1169 33.7228 38.6302 31.8851 38.7364 29.9061C38.9046 26.6284 38.8249 23.3418 38.8161 20.0641C38.8161 19.101 38.7541 18.1292 38.6568 17.1662C38.2585 13.4467 35.6035 10.7962 31.8777 10.4075C29.6121 10.169 27.3376 10.2485 25.2225 10.222Z" fill="black"/>
<path id="Vector_2" d="M25.0278 35.2866C22.948 35.2512 20.8683 35.3396 18.7885 35.1717C15.8415 34.9332 14.0184 33.175 13.8502 30.2242C13.6113 26.0453 13.6113 21.8575 13.8591 17.6698C13.9653 15.8586 14.7352 14.3567 16.4167 13.4644C17.3637 12.9608 18.408 12.8018 19.4523 12.7752C23.3905 12.6869 27.3376 12.5897 31.2759 12.8371C34.1964 13.0226 36.0195 14.8338 36.1876 17.7493C36.4266 21.9194 36.4266 26.0894 36.1876 30.2507C36.0195 33.1309 34.1787 34.9243 31.3024 35.154C30.2581 35.2424 29.205 35.2512 28.1607 35.2689C27.1252 35.2954 26.0809 35.2866 25.0278 35.2866ZM32.1166 23.9867C32.1078 20.0817 28.9572 16.9365 25.0455 16.9277C21.1161 16.9188 17.9389 20.0905 17.9478 24.0132C17.9566 27.9183 21.1072 31.0635 25.0189 31.0723C28.9395 31.0812 32.1255 27.9094 32.1166 23.9867ZM34.0459 16.6449C34.0459 15.7349 33.3291 15.0016 32.4175 14.9928C31.4883 14.984 30.7449 15.7084 30.7449 16.6361C30.7449 17.5461 31.4617 18.2706 32.3644 18.2882C33.3025 18.2971 34.0459 17.5726 34.0459 16.6449Z" fill="black"/>
<path id="Vector_3" d="M25.0278 19.4102C27.5589 19.4102 29.6298 21.4599 29.6298 23.9866C29.6386 26.5311 27.5589 28.6073 25.0101 28.5984C22.479 28.5896 20.4258 26.5222 20.4258 24.0043C20.4346 21.4687 22.4967 19.4102 25.0278 19.4102Z" fill="black"/>
</g>
</svg>
