<svg width="49" height="48" viewBox="0 0 49 48" fill="none" xmlns="http://www.w3.org/2000/svg">
<g id="Group">
<path id="Vector" d="M22.5321 0C23.5321 0 24.5322 0 25.5411 0C25.665 0.0265047 25.78 0.0706792 25.9039 0.0795141C29.6475 0.362231 33.1521 1.43125 36.3469 3.3926C42.5508 7.20928 46.374 12.6957 47.7192 19.8697C47.8785 20.7443 47.967 21.6278 48.0909 22.5025C48.0909 23.5008 48.0909 24.4992 48.0909 25.5063C47.9581 25.7979 48.0112 26.1248 47.9758 26.4252C47.4625 31.1695 45.7368 35.4279 42.7012 39.1209C38.9311 43.7151 34.099 46.5599 28.2315 47.6289C27.3465 47.788 26.4438 47.8763 25.5499 48C24.5499 48 23.5498 48 22.5409 48C21.9568 47.9293 21.3639 47.8675 20.7798 47.7791C16.3459 47.1518 12.3634 45.4644 8.89425 42.6195C4.3011 38.847 1.4337 34.032 0.371698 28.1745C0.212398 27.291 0.1239 26.3898 0 25.4887C0 24.4903 0 23.492 0 22.4848C0.1239 22.1844 0.0796475 21.8664 0.115048 21.566C0.672597 16.4859 2.59305 11.989 5.99144 8.15461C9.72614 3.94036 14.3812 1.3164 19.9479 0.353396C20.8063 0.212038 21.6736 0.123689 22.5321 0ZM24.2313 10.222C22.0896 10.2308 20.1072 10.1955 18.1159 10.3192C16.5141 10.4163 14.983 10.7432 13.629 11.6532C11.3722 13.1728 10.4518 15.4081 10.3368 18.0144C10.1598 22.0077 10.1686 26.0099 10.3368 30.0121C10.3987 31.5759 10.7704 33.0779 11.6554 34.3943C13.1776 36.6472 15.4167 37.566 18.0274 37.6808C22.0276 37.8664 26.0367 37.8575 30.0457 37.6808C32.2405 37.5837 34.2229 36.9122 35.754 35.2336C37.1257 33.7228 37.639 31.8851 37.7452 29.9061C37.9134 26.6284 37.8337 23.3418 37.8249 20.0641C37.8249 19.101 37.7629 18.1292 37.6656 17.1662C37.2673 13.4467 34.6123 10.7962 30.8865 10.4075C28.6209 10.169 26.3464 10.2485 24.2313 10.222Z" fill="white"/>
<path id="Vector_2" d="M24.0366 35.2866C21.9568 35.2512 19.8771 35.3396 17.7973 35.1717C14.8503 34.9332 13.0272 33.175 12.859 30.2242C12.6201 26.0453 12.6201 21.8575 12.8679 17.6698C12.9741 15.8586 13.744 14.3567 15.4255 13.4644C16.3725 12.9608 17.4168 12.8018 18.4611 12.7752C22.3993 12.6869 26.3464 12.5897 30.2847 12.8371C33.2052 13.0226 35.0283 14.8338 35.1964 17.7493C35.4354 21.9194 35.4354 26.0894 35.1964 30.2507C35.0283 33.1309 33.1875 34.9243 30.3112 35.154C29.2669 35.2424 28.2138 35.2512 27.1695 35.2689C26.134 35.2954 25.0897 35.2866 24.0366 35.2866ZM31.1254 23.9867C31.1166 20.0817 27.966 16.9365 24.0543 16.9277C20.1249 16.9188 16.9477 20.0905 16.9566 24.0132C16.9654 27.9183 20.116 31.0635 24.0277 31.0723C27.9483 31.0812 31.1343 27.9094 31.1254 23.9867ZM33.0547 16.6449C33.0547 15.7349 32.3379 15.0016 31.4263 14.9928C30.4971 14.984 29.7537 15.7084 29.7537 16.6361C29.7537 17.5461 30.4705 18.2706 31.3732 18.2882C32.3113 18.2971 33.0547 17.5726 33.0547 16.6449Z" fill="white"/>
<path id="Vector_3" d="M24.0366 19.4103C26.5677 19.4103 28.6386 21.46 28.6386 23.9868C28.6474 26.5312 26.5677 28.6074 24.0189 28.5986C21.4878 28.5897 19.4346 26.5224 19.4346 24.0044C19.4434 21.4688 21.5055 19.4103 24.0366 19.4103Z" fill="white"/>
</g>
</svg>
