<svg width="49" height="49" viewBox="0 0 49 49" fill="none" xmlns="http://www.w3.org/2000/svg">
<g id="Group">
<path id="Vector" d="M22.5409 0C23.541 0 24.541 0 25.5499 0C25.6738 0.0265047 25.7889 0.0706792 25.9128 0.0795141C29.6563 0.362231 33.1609 1.43125 36.3558 3.3926C42.5596 7.20928 46.3828 12.6957 47.728 19.8697C47.8873 20.7443 47.9758 21.6278 48.0997 22.5025C48.0997 23.5008 48.0997 24.4992 48.0997 25.5064C47.967 25.8067 48.0201 26.1248 47.9847 26.434C47.4714 31.1784 45.7456 35.4368 42.7101 39.1298C38.94 43.7239 34.1079 46.5687 28.2403 47.6378C27.3553 47.7968 26.4526 47.8851 25.5588 48.0088C24.5587 48.0088 23.5587 48.0088 22.5498 48.0088C21.9657 47.9382 21.3727 47.8763 20.7886 47.788C16.3548 47.1607 12.3723 45.4732 8.9031 42.6284C4.30995 38.8559 1.44255 34.0409 0.38055 28.1833C0.22125 27.2998 0.13275 26.3987 0.0088501 25.4975C0.0088501 24.4992 0.0088501 23.5008 0.0088501 22.4936C0.13275 22.1933 0.0885001 21.8752 0.1239 21.5748C0.68145 16.4948 2.6019 11.9978 6.0003 8.16345C9.73499 3.9492 14.3901 1.32523 19.9567 0.362231C20.8063 0.212038 21.6736 0.123689 22.5409 0ZM26.2668 21.0271C26.2314 21.0182 26.1871 21.0006 26.1517 20.9917C26.1517 20.3379 26.1517 19.693 26.1517 19.0392C26.1517 18.8272 26.1163 18.6858 25.8508 18.6858C24.0985 18.6946 22.3462 18.6946 20.5939 18.6858C20.3284 18.6858 20.2842 18.8095 20.293 19.0304C20.3107 19.4544 20.3107 19.8697 20.3107 20.2938C20.3019 25.4445 20.3019 30.6041 20.2842 35.7548C20.2842 36.1347 20.3284 36.2938 20.7798 36.2849C22.4259 36.2496 24.0631 36.2584 25.7092 36.2761C26.0544 36.2761 26.1606 36.1966 26.1606 35.8343C26.1429 34.3501 26.1517 32.8658 26.1517 31.3816C26.1606 29.5351 26.1517 27.6974 26.196 25.8509C26.2225 24.7907 26.7801 23.9779 27.6297 23.3948C29.2404 22.2816 31.3555 22.9266 32.0016 24.72C32.2582 25.4357 32.3202 26.1778 32.3202 26.9376C32.3202 29.8885 32.329 32.8393 32.3113 35.7902C32.3113 36.1877 32.4264 36.2761 32.8069 36.2761C34.4353 36.2584 36.0637 36.2584 37.6921 36.2761C38.0815 36.2849 38.1877 36.1789 38.1877 35.7902C38.17 32.6184 38.1789 29.4467 38.1789 26.275C38.1789 25.1618 38.0904 24.0574 37.7718 22.9884C37.0284 20.497 35.4708 18.8537 32.86 18.4031C30.2227 17.9437 27.9483 18.5798 26.3553 20.9034C26.311 20.9475 26.2845 20.9917 26.2668 21.0271ZM11.1952 27.4677C11.1952 30.2684 11.1952 33.0602 11.1864 35.8609C11.1864 36.1701 11.2395 36.2938 11.5935 36.2938C13.2838 36.2761 14.9742 36.2761 16.6645 36.2938C17.0097 36.2938 17.0716 36.1701 17.0716 35.8609C17.0628 30.286 17.0628 24.7024 17.0716 19.1276C17.0716 18.7742 16.9654 18.677 16.6203 18.6858C14.9742 18.7035 13.3369 18.7035 11.6908 18.6858C11.3103 18.677 11.1864 18.783 11.1864 19.1806C11.2041 21.937 11.1952 24.7024 11.1952 27.4677ZM10.8678 13.2612C10.8678 15.037 12.2307 16.3092 14.1423 16.3004C16.0627 16.2916 17.4522 15.0193 17.4522 13.2789C17.4522 11.503 16.0893 10.222 14.1865 10.222C12.2307 10.2131 10.8589 11.4677 10.8678 13.2612Z" fill="white"/>
</g>
</svg>
