<svg width="99" height="15" viewBox="0 0 99 15" fill="none" xmlns="http://www.w3.org/2000/svg">
<g id="Group 11">
<g id="Ellipse 143">
<path id="Vector" d="M7.5 14C11.0899 14 14 11.0899 14 7.5C14 3.91015 11.0899 1 7.5 1C3.91015 1 1 3.91015 1 7.5C1 11.0899 3.91015 14 7.5 14Z" stroke="#DE964E" stroke-width="2"/>
</g>
<g id="Ellipse 141">
<path id="Vector_2" d="M49.5 14C53.0899 14 56 11.0899 56 7.5C56 3.91015 53.0899 1 49.5 1C45.9101 1 43 3.91015 43 7.5C43 11.0899 45.9101 14 49.5 14Z" stroke="#DE964E" stroke-width="2"/>
</g>
<g id="Ellipse 142">
<path id="Vector_3" d="M28.5 14C32.0899 14 35 11.0899 35 7.5C35 3.91015 32.0899 1 28.5 1C24.9101 1 22 3.91015 22 7.5C22 11.0899 24.9101 14 28.5 14Z" stroke="#DE964E" stroke-width="2"/>
</g>
<g id="Ellipse 140">
<path id="Vector_4" d="M70.5 14C74.0899 14 77 11.0899 77 7.5C77 3.91015 74.0899 1 70.5 1C66.9101 1 64 3.91015 64 7.5C64 11.0899 66.9101 14 70.5 14Z" stroke="#DE964E" stroke-width="2"/>
</g>
<g id="Ellipse 139">
<path id="Vector_5" d="M91.5 14C95.0899 14 98 11.0899 98 7.5C98 3.91015 95.0899 1 91.5 1C87.9101 1 85 3.91015 85 7.5C85 11.0899 87.9101 14 91.5 14Z" stroke="#DE964E" stroke-width="2"/>
</g>
</g>
</svg>
