<svg width="49" height="49" viewBox="0 0 49 49" fill="none" xmlns="http://www.w3.org/2000/svg">
<g id="Group">
<path id="Vector" d="M22.5321 0C23.5321 0 24.5322 0 25.5411 0C25.665 0.0265047 25.78 0.0706792 25.9039 0.0795141C29.6475 0.362231 33.1521 1.43125 36.3469 3.3926C42.5508 7.20928 46.374 12.6957 47.7192 19.8697C47.8785 20.7443 47.967 21.6278 48.0909 22.5025C48.0909 23.5008 48.0909 24.4992 48.0909 25.5064C47.9581 25.8067 48.0112 26.1248 47.9758 26.434C47.4625 31.1784 45.7368 35.4368 42.7012 39.1298C38.9311 43.7239 34.099 46.5687 28.2315 47.6378C27.3465 47.7968 26.4438 47.8851 25.5499 48.0088C24.5499 48.0088 23.5498 48.0088 22.5409 48.0088C21.9568 47.9382 21.3639 47.8763 20.7798 47.788C16.3459 47.1607 12.3634 45.4732 8.89425 42.6284C4.3011 38.8559 1.4337 34.0409 0.3717 28.1833C0.2124 27.2998 0.1239 26.3987 0 25.4975C0 24.4992 0 23.5008 0 22.4936C0.1239 22.1933 0.07965 21.8752 0.11505 21.5748C0.6726 16.4948 2.59305 11.9978 5.99145 8.16345C9.72614 3.9492 14.3812 1.32523 19.9479 0.362231C20.7975 0.212038 21.6648 0.123689 22.5321 0ZM26.2579 21.0271C26.2225 21.0182 26.1783 21.0006 26.1429 20.9917C26.1429 20.3379 26.1429 19.693 26.1429 19.0392C26.1429 18.8272 26.1075 18.6858 25.842 18.6858C24.0897 18.6946 22.3374 18.6946 20.5851 18.6858C20.3196 18.6858 20.2753 18.8095 20.2842 19.0304C20.3019 19.4544 20.3019 19.8697 20.3019 20.2938C20.293 25.4445 20.293 30.6041 20.2753 35.7548C20.2753 36.1347 20.3196 36.2938 20.7709 36.2849C22.417 36.2496 24.0543 36.2584 25.7004 36.2761C26.0455 36.2761 26.1517 36.1966 26.1517 35.8343C26.134 34.3501 26.1429 32.8658 26.1429 31.3816C26.1517 29.5351 26.1429 27.6974 26.1871 25.8509C26.2137 24.7907 26.7712 23.9779 27.6208 23.3948C29.2315 22.2816 31.3467 22.9266 31.9927 24.72C32.2494 25.4357 32.3113 26.1778 32.3113 26.9376C32.3113 29.8885 32.3202 32.8393 32.3025 35.7902C32.3025 36.1877 32.4175 36.2761 32.7981 36.2761C34.4265 36.2584 36.0549 36.2584 37.6833 36.2761C38.0727 36.2849 38.1789 36.1789 38.1789 35.7902C38.1612 32.6184 38.17 29.4467 38.17 26.275C38.17 25.1618 38.0815 24.0574 37.7629 22.9884C37.0195 20.497 35.4619 18.8537 32.8512 18.4031C30.2139 17.9437 27.9394 18.5798 26.3464 20.9034C26.3022 20.9475 26.2756 20.9917 26.2579 21.0271ZM11.1864 27.4677C11.1864 30.2684 11.1864 33.0602 11.1775 35.8609C11.1775 36.1701 11.2306 36.2938 11.5846 36.2938C13.275 36.2761 14.9653 36.2761 16.6557 36.2938C17.0008 36.2938 17.0628 36.1701 17.0628 35.8609C17.0539 30.286 17.0539 24.7024 17.0628 19.1276C17.0628 18.7742 16.9566 18.677 16.6114 18.6858C14.9653 18.7035 13.3281 18.7035 11.682 18.6858C11.3014 18.677 11.1775 18.783 11.1775 19.1806C11.1952 21.937 11.1864 24.7024 11.1864 27.4677ZM10.8589 13.2612C10.8589 15.037 12.2218 16.3092 14.1334 16.3004C16.0539 16.2916 17.4433 15.0193 17.4433 13.2789C17.4433 11.503 16.0804 10.222 14.1777 10.222C12.2218 10.2131 10.8501 11.4677 10.8589 13.2612Z" fill="black"/>
</g>
</svg>
