<svg width="79" height="79" viewBox="0 0 79 79" fill="none" xmlns="http://www.w3.org/2000/svg">
<g id="Group 47">
<g id="Group 46">
<circle id="Ellipse 145" cx="39.5" cy="39.5" r="37.5" stroke="#DE964E" stroke-width="4"/>
<circle id="Ellipse 146" cx="39.5" cy="39.5" r="29.5" fill="black"/>
<g id="Group">
<path id="Vector" d="M39.6673 22C40.5299 22.1248 41.3953 22.2246 42.2357 22.4777C44.5785 23.1827 46.5224 24.4847 48.0629 26.3848C49.2063 27.7947 49.9864 29.3945 50.3684 31.1707C51.0356 34.2739 50.5914 37.2194 48.8963 39.9082C45.968 44.5541 42.9856 49.1653 40.0262 53.7916C39.9818 53.8612 39.9382 53.9325 39.8912 54.0002C39.3821 54.7408 38.5194 54.7452 38.0237 53.9939C37.4702 53.1544 36.9371 52.3006 36.3952 51.4531C33.9547 47.6333 31.5017 43.8207 29.0772 39.9911C27.486 37.4769 26.9272 34.7284 27.4301 31.791C28.2598 26.9534 31.8056 23.2744 36.6066 22.2415C37.1459 22.1257 37.7012 22.0784 38.2485 22C38.722 22 39.1946 22 39.6673 22ZM44.2773 33.7418C44.2773 30.8053 41.8768 28.4008 38.9494 28.4061C36.0354 28.4114 33.6499 30.7999 33.6393 33.724C33.6286 36.6597 36.0212 39.0722 38.9494 39.0776C41.8759 39.0829 44.2773 36.6784 44.2773 33.7418Z" fill="white"/>
<path id="Vector_2" d="M38.6198 58.4332C35.7449 58.4082 32.567 58.0981 29.4628 57.2229C27.7153 56.7301 26.029 56.0928 24.5942 54.9298C24.0949 54.5252 23.6578 54.06 23.3593 53.4807C22.7294 52.2544 22.9346 50.9024 23.9208 49.7973C24.9176 48.6806 26.2023 48.0139 27.5642 47.4765C28.4651 47.1209 29.3944 46.8509 30.3308 46.6031C30.5796 46.5372 30.6817 46.6013 30.8079 46.8001C32.503 49.4675 34.2088 52.1278 35.9057 54.7934C36.5569 55.8166 37.4533 56.4431 38.6767 56.5304C39.9498 56.6222 41.0177 56.1766 41.756 55.1294C42.4987 54.076 43.1641 52.9682 43.8589 51.8809C44.9366 50.1956 46.016 48.5121 47.0803 46.8179C47.2278 46.5835 47.3575 46.5425 47.6178 46.612C49.2081 47.0345 50.7709 47.522 52.2004 48.3624C53.0124 48.8401 53.7489 49.406 54.2988 50.1885C55.2121 51.4906 55.0878 53.093 54.0128 54.2676C53.095 55.2702 51.9534 55.9208 50.7256 56.436C48.485 57.3762 46.1279 57.8468 43.731 58.1435C42.1469 58.3414 40.5548 58.4296 38.6198 58.4332Z" fill="white"/>
</g>
</g>
</g>
</svg>
