<svg width="153" height="119" viewBox="0 0 153 119" fill="none" xmlns="http://www.w3.org/2000/svg">
<path id="Skills" opacity="0.5" d="M89.3301 81.1757C89.3301 57.7057 97.0775 36.1725 112.572 16.5761C122.37 4.72714 130.232 -0.39981 136.156 1.19524C141.625 3.24602 144.359 6.3222 144.359 10.4238C144.359 14.2975 142.536 18.399 138.891 22.7284C135.473 27.0579 132.738 30.5898 130.688 33.3242C128.637 36.0585 126.928 39.0208 125.561 42.2109C122.37 48.5911 120.775 56.3385 120.775 65.4531C126.244 63.858 131.713 64.5416 137.182 67.5038C147.208 73.2005 152.221 80.4921 152.221 89.3788C152.221 98.0377 149.486 105.101 144.018 110.57C138.777 115.811 131.485 118.432 122.143 118.432C112.8 118.432 104.939 114.9 98.5586 107.836C92.4062 100.544 89.3301 91.6575 89.3301 81.1757ZM0.462891 81.1757C0.462891 56.7942 8.09635 35.261 23.3633 16.5761C34.9844 2.67636 44.6686 -1.53913 52.416 3.92962C54.0111 5.06894 54.8086 6.89186 54.8086 9.39837C54.8086 13.9557 53.0996 18.399 49.6816 22.7284C46.4915 27.0579 43.8711 30.5898 41.8203 33.3242C39.7695 36.0585 38.0605 39.0208 36.6934 42.2109C33.5033 48.5911 31.9082 56.3385 31.9082 65.4531C37.377 63.858 42.7318 64.5416 47.9727 67.5038C57.7708 73.2005 62.6699 80.4921 62.6699 89.3788C62.6699 98.0377 60.0495 105.101 54.8086 110.57C49.5677 115.811 42.276 118.432 32.9336 118.432C23.5911 118.432 15.8438 114.9 9.69141 107.836C3.53906 100.544 0.462891 91.6575 0.462891 81.1757Z" fill="white"/>
</svg>
