<svg xmlns="http://www.w3.org/2000/svg" xmlns:xlink="http://www.w3.org/1999/xlink" width="151.622" height="67" viewBox="0 0 151.622 67">
  <defs>
    <linearGradient id="linear-gradient" y1="0.5" x2="1" y2="0.5" gradientUnits="objectBoundingBox">
      <stop offset="0.37" stop-color="#f16622"/>
      <stop offset="0.93" stop-color="#fdd800"/>
    </linearGradient>
    <clipPath id="clip-path">
      <path id="Path_9988" data-name="Path 9988" d="M151,107.541v14h31.735v7.592H143.406V99.951h39.327v7.59Zm63.035,8.321,21.635-37.52h8.754L214.035,131.05,187.992,85.934H143.406V78.27h2.119c13.536,0,27.071.072,40.605.072h6.226Zm-94.776-4.632,17.917,17.9H126.442l-17.9-17.9Zm-18.86-3.688v21.594H92.8V99.951h29.8c3.773,0,6.023-2.25,6.023-6.023V91.957c0-3.775-2.248-6.023-6.023-6.023H92.8V78.342h29.8c9.3,0,13.615,4.313,13.615,13.615v1.971c0,9.259-4.282,13.613-13.558,13.613Z" transform="translate(-92.8 -78.27)" fill="url(#linear-gradient)"/>
    </clipPath>
    <linearGradient id="linear-gradient-3" x1="0.524" y1="1.163" x2="0.468" y2="-0.38" xlink:href="#linear-gradient"/>
  </defs>
  <g id="ic_RevLogo" transform="translate(-92.8 -78.27)">
    <path id="Path_9973" data-name="Path 9973" d="M174.16,405.86v-8.011h3.485a2.187,2.187,0,0,1,.994.227,2.582,2.582,0,0,1,.784.6,2.8,2.8,0,0,1,.518.835,2.486,2.486,0,0,1,.184.946,2.748,2.748,0,0,1-.184,1.016,2.385,2.385,0,0,1-.553.835,2.125,2.125,0,0,1-.828.507l1.883,3.046h-1.42l-1.737-2.786h-1.864v2.786Zm1.261-3.9h2.213a1.012,1.012,0,0,0,.621-.2,1.377,1.377,0,0,0,.428-.553,1.778,1.778,0,0,0,.159-.751,1.551,1.551,0,0,0-.184-.749,1.525,1.525,0,0,0-.47-.533,1.068,1.068,0,0,0-.627-.2h-2.139Z" transform="translate(-66.356 -260.646)" fill="#fff"/>
    <path id="Path_9974" data-name="Path 9974" d="M227.434,404.743v1.118H221.94V397.85h5.392v1.118H223.2v2.279h3.576V402.3H223.2v2.447Z" transform="translate(-105.325 -260.646)" fill="#fff"/>
    <path id="Path_9975" data-name="Path 9975" d="M267.413,400.2v5.663H266.15V397.85h1.038l4.535,5.789v-5.778H273v8h-1.106Z" transform="translate(-141.383 -260.646)" fill="#fff"/>
    <path id="Path_9976" data-name="Path 9976" d="M323.1,398.968h-2.661v6.893h-1.267v-6.893H316.5V397.85h6.6Z" transform="translate(-182.447 -260.646)" fill="#fff"/>
    <path id="Path_9977" data-name="Path 9977" d="M391.565,404.743v1.118h-5.5V397.85h5.392v1.118h-4.129v2.279h3.578V402.3h-3.578v2.447Z" transform="translate(-239.188 -260.646)" fill="#fff"/>
    <path id="Path_9978" data-name="Path 9978" d="M427.123,397.85l2.414,6.465,2.4-6.465h1.342l-3.148,8.011h-1.191l-3.157-8.011Z" transform="translate(-271.575 -260.646)" fill="#fff"/>
    <path id="Path_9979" data-name="Path 9979" d="M484.614,404.743v1.118H479.12V397.85h5.392v1.118h-4.123v2.279h3.578V402.3h-3.578v2.447Z" transform="translate(-315.079 -260.646)" fill="#fff"/>
    <path id="Path_9980" data-name="Path 9980" d="M523.35,405.86v-8.011h3.485a2.187,2.187,0,0,1,.994.227,2.567,2.567,0,0,1,.784.6,2.8,2.8,0,0,1,.518.835,2.486,2.486,0,0,1,.184.946,2.71,2.71,0,0,1-.184,1.016,2.4,2.4,0,0,1-.553.835,2.144,2.144,0,0,1-.83.507l1.883,3.046h-1.42l-1.737-2.786h-1.861v2.786Zm1.263-3.9h2.213a1.012,1.012,0,0,0,.621-.2,1.377,1.377,0,0,0,.428-.553,1.777,1.777,0,0,0,.159-.751,1.551,1.551,0,0,0-.184-.749,1.525,1.525,0,0,0-.468-.537,1.068,1.068,0,0,0-.625-.2h-2.143Z" transform="translate(-351.152 -260.646)" fill="#fff"/>
    <path id="Path_9981" data-name="Path 9981" d="M566.165,397.85l2.213,3.983,2.235-3.983H572L569.01,403v2.866h-1.263v-2.888l-2.967-5.123Z" transform="translate(-384.942 -260.646)" fill="#fff"/>
    <path id="Path_9982" data-name="Path 9982" d="M619.281,398.968h-2.663v6.893h-1.274v-6.893H612.67V397.85h6.611Z" transform="translate(-424.001 -260.646)" fill="#fff"/>
    <path id="Path_9983" data-name="Path 9983" d="M668.248,397.85v8.011h-1.276v-3.531h-4.039v3.531H661.67V397.85h1.263V401.2h4.039V397.85Z" transform="translate(-463.965 -260.646)" fill="#fff"/>
    <path id="Path_9984" data-name="Path 9984" d="M714.46,405.861V397.85h1.265v8.011Z" transform="translate(-507.02 -260.646)" fill="#fff"/>
    <path id="Path_9985" data-name="Path 9985" d="M739.705,400.2v5.663H738.44V397.85h1.038l4.536,5.789v-5.778h1.274v8h-1.106Z" transform="translate(-526.578 -260.646)" fill="#fff"/>
    <path id="Path_9986" data-name="Path 9986" d="M793.8,405.646a3.408,3.408,0,0,1-1.475-.326,3.749,3.749,0,0,1-1.2-.9,4.3,4.3,0,0,1-.8-1.309,4.226,4.226,0,0,1-.288-1.556,4.134,4.134,0,0,1,.288-1.545,4.2,4.2,0,0,1,.8-1.291,3.846,3.846,0,0,1,4.647-.716,3.085,3.085,0,0,1,1.18,1.269l-.97.7a2.185,2.185,0,0,0-.9-.981,2.547,2.547,0,0,0-1.269-.328,2.213,2.213,0,0,0-1.027.238,2.451,2.451,0,0,0-.795.649,2.894,2.894,0,0,0-.5.935,3.58,3.58,0,0,0-.17,1.106,3.345,3.345,0,0,0,.184,1.14,2.869,2.869,0,0,0,.551.929,2.52,2.52,0,0,0,.823.625,2.352,2.352,0,0,0,1.027.225,2.516,2.516,0,0,0,1.247-.332,3.807,3.807,0,0,0,1.106-1v1.291A3.205,3.205,0,0,1,793.8,405.646Zm2.335-3.17h-1.68v-.935h2.74V405.6h-1.06Z" transform="translate(-568.661 -260.376)" fill="#fff"/>
    <path id="Path_9987" data-name="Path 9987" d="M151,107.541v14h31.735v7.592H143.406V99.951h39.327v7.59Zm63.035,8.321,21.635-37.52h8.754L214.035,131.05,187.992,85.934H143.406V78.27h2.119c13.536,0,27.071.072,40.605.072h6.226Zm-94.776-4.632,17.917,17.9H126.442l-17.9-17.9Zm-18.86-3.688v21.594H92.8V99.951h29.8c3.773,0,6.023-2.25,6.023-6.023V91.957c0-3.775-2.248-6.023-6.023-6.023H92.8V78.342h29.8c9.3,0,13.615,4.313,13.615,13.615v1.971c0,9.259-4.282,13.613-13.558,13.613Z" transform="translate(0 0)" fill-rule="evenodd" fill="url(#linear-gradient)"/>
    <g id="Group_6523" data-name="Group 6523" transform="translate(92.8 78.27)" clip-path="url(#clip-path)">
      <rect id="Rectangle_2239" data-name="Rectangle 2239" width="151.622" height="52.78" transform="translate(0)" fill="url(#linear-gradient-3)"/>
    </g>
  </g>
</svg>
