<svg width="123" height="123" viewBox="0 0 123 123" fill="none" xmlns="http://www.w3.org/2000/svg">
<g id="Group 38">
<g id="Group 26">
<path id="Line 8" d="M50.5883 1.00012L36.914 14.6744" stroke="white" stroke-linecap="round"/>
<path id="Line 9" d="M50.5883 14.6743L36.914 1.00008" stroke="white" stroke-linecap="round"/>
</g>
<g id="Group 24">
<path id="Line 8_2" d="M14.6743 72.5507L1.00001 86.2249" stroke="white" stroke-linecap="round"/>
<path id="Line 9_2" d="M14.6743 86.2247L1.00002 72.5505" stroke="white" stroke-linecap="round"/>
</g>
<g id="Group 27">
<path id="Line 8_3" d="M50.5883 72.5507L36.914 86.2249" stroke="white" stroke-linecap="round"/>
<path id="Line 9_3" d="M50.5883 86.2247L36.914 72.5505" stroke="white" stroke-linecap="round"/>
</g>
<g id="Group 23">
<path id="Line 8_4" d="M14.6743 36.7754L1.00001 50.4496" stroke="white" stroke-linecap="round"/>
<path id="Line 9_4" d="M14.6743 50.4496L1.00002 36.7753" stroke="white" stroke-linecap="round"/>
</g>
<g id="Group 28">
<path id="Line 8_5" d="M50.5883 36.7754L36.914 50.4496" stroke="white" stroke-linecap="round"/>
<path id="Line 9_5" d="M50.5883 50.4496L36.914 36.7753" stroke="white" stroke-linecap="round"/>
</g>
<g id="Group 29">
<path id="Line 8_6" d="M50.5883 108.326L36.914 122" stroke="white" stroke-linecap="round"/>
<path id="Line 9_6" d="M50.5883 122L36.914 108.326" stroke="white" stroke-linecap="round"/>
</g>
<g id="Group 30">
<path id="Line 8_7" d="M86.5022 1.00012L72.828 14.6744" stroke="white" stroke-linecap="round"/>
<path id="Line 9_7" d="M86.5022 14.6743L72.828 1.00008" stroke="white" stroke-linecap="round"/>
</g>
<g id="Group 32">
<path id="Line 8_8" d="M86.5022 72.5507L72.828 86.2249" stroke="white" stroke-linecap="round"/>
<path id="Line 9_8" d="M86.5022 86.2247L72.828 72.5505" stroke="white" stroke-linecap="round"/>
</g>
<g id="Group 33">
<path id="Line 8_9" d="M122.416 72.5507L108.742 86.2249" stroke="white" stroke-linecap="round"/>
<path id="Line 9_9" d="M122.416 86.2247L108.742 72.5505" stroke="white" stroke-linecap="round"/>
</g>
<g id="Group 34">
<path id="Line 8_10" d="M86.5022 36.7754L72.828 50.4496" stroke="white" stroke-linecap="round"/>
<path id="Line 9_10" d="M86.5022 50.4496L72.828 36.7753" stroke="white" stroke-linecap="round"/>
</g>
<g id="Group 35">
<path id="Line 8_11" d="M122.416 36.7754L108.742 50.4496" stroke="white" stroke-linecap="round"/>
<path id="Line 9_11" d="M122.416 50.4496L108.742 36.7753" stroke="white" stroke-linecap="round"/>
</g>
<g id="Group 36">
<path id="Line 8_12" d="M86.5022 108.326L72.828 122" stroke="white" stroke-linecap="round"/>
<path id="Line 9_12" d="M86.5022 122L72.828 108.326" stroke="white" stroke-linecap="round"/>
</g>
</g>
</svg>
