<svg width="49" height="48" viewBox="0 0 49 48" fill="none" xmlns="http://www.w3.org/2000/svg">
<g id="Group">
<path id="Vector" d="M24.4083 48C23.7799 48 23.1604 48 22.5321 48C22.4259 47.9735 22.3197 47.9382 22.2223 47.9293C19.3284 47.7173 16.5406 47.037 13.9299 45.7648C6.50474 42.1513 1.9647 36.2849 0.371698 28.1833C0.194698 27.2998 0.11505 26.3987 0 25.4975C0 24.4992 0 23.5008 0 22.4936C0.11505 22.1933 0.0796543 21.8752 0.115054 21.5748C0.681454 16.3887 2.67269 11.8211 6.17729 7.95141C9.88544 3.85202 14.4786 1.30756 19.9479 0.362231C20.8063 0.212038 21.6736 0.123689 22.5409 0C23.541 0 24.541 0 25.5499 0C25.6738 0.0265047 25.7889 0.0706792 25.9128 0.0795141C29.6386 0.362231 33.1255 1.42242 36.3115 3.37493C42.5508 7.18277 46.374 12.6869 47.7192 19.8697C47.8785 20.7443 47.967 21.6278 48.0909 22.5025C48.0909 23.4743 48.0909 24.4373 48.0909 25.4092C47.9847 26.2308 47.9316 27.0525 47.7811 27.8564C46.2235 36.1966 41.6038 42.2043 33.9397 45.8708C32.9131 46.3655 31.8423 46.7454 30.7272 47.0458C30.7095 46.9486 30.7006 46.8956 30.7006 46.8338C30.7006 41.1176 30.7006 35.3926 30.6918 29.6764C30.6918 29.323 30.8511 29.3142 31.1166 29.3142C32.5591 29.323 33.9928 29.3054 35.4354 29.323C35.7717 29.323 35.8956 29.2347 35.931 28.8989C36.1257 27.238 36.3381 25.5859 36.5682 23.9249C36.6744 23.1916 36.6478 23.3065 36.0106 23.3065C34.3822 23.2976 32.7538 23.3065 31.1254 23.3065C30.913 23.3065 30.6829 23.3683 30.6829 23.0061C30.7006 21.6013 30.6652 20.1966 30.7183 18.7918C30.7714 17.5814 31.3998 16.9188 32.5857 16.6626C32.9574 16.5831 33.3291 16.5743 33.7096 16.5743C34.6212 16.5654 35.5239 16.5654 36.4354 16.5743C36.7009 16.5743 36.8248 16.5213 36.8248 16.2209C36.8071 14.6571 36.816 13.0933 36.8248 11.5295C36.8248 11.2733 36.754 11.185 36.4885 11.1585C34.869 11.0171 33.2406 10.9288 31.6122 10.9906C30.2139 11.0436 28.8864 11.3882 27.7005 12.148C25.6207 13.4821 24.718 15.4964 24.5233 17.8642C24.3906 19.534 24.4791 21.2038 24.4791 22.8735C24.4791 23.2181 24.3817 23.3241 24.0277 23.3241C22.6029 23.3065 21.178 23.3241 19.7532 23.3065C19.4169 23.3065 19.293 23.386 19.293 23.7482C19.3107 25.471 19.3107 27.185 19.293 28.9078C19.293 29.2347 19.3903 29.3407 19.7178 29.3319C21.1072 29.3142 22.5055 29.3407 23.895 29.3142C24.3375 29.3054 24.4702 29.4114 24.4702 29.8708C24.4525 35.746 24.4614 41.6212 24.4614 47.4964C24.4525 47.6643 24.4879 47.841 24.4083 48Z" fill="white"/>
</g>
</svg>
